<svg width="28" height="29" viewBox="0 0 28 29" fill="none" xmlns="http://www.w3.org/2000/svg">
<path d="M4.8854 0.77232L7.31716 0.167737C9.60693 -0.401543 12.0534 0.518467 13.0339 2.31759L14.5477 5.09499C15.3835 6.62849 14.9431 8.43072 13.4522 9.57738L10.808 11.6112C10.7753 11.6363 10.7485 11.6662 10.7288 11.6993C10.4523 12.1656 10.8714 13.4114 12.1891 15.294C13.6744 17.4158 14.8224 18.2555 15.3526 18.1251L18.8238 17.2498C20.7726 16.7584 22.8846 17.3444 24.077 18.7075L26.2268 21.165C27.6225 22.7605 27.3715 24.9616 25.6397 26.3144L23.7907 27.7587C22.4847 28.7788 20.6559 29.2071 18.8948 28.9051C13.7421 28.0215 9.12557 24.599 5.00647 18.7144C0.883307 12.824 -0.400405 7.81097 1.25564 3.68633C1.8181 2.28544 3.17238 1.19821 4.8854 0.77232ZM5.51961 2.50774C4.4918 2.76328 3.67923 3.41562 3.34175 4.25615C1.91483 7.81012 3.07067 12.3238 6.90958 17.8081C10.7448 23.2872 14.9019 26.3691 19.3421 27.1305C20.3987 27.3117 21.496 27.0547 22.2796 26.4426L24.1286 24.9983C25.0612 24.2699 25.1963 23.0847 24.4448 22.2256L22.2949 19.7681C21.6528 19.0341 20.5156 18.7185 19.4663 18.9832L15.9877 19.8603C14.0624 20.3337 12.2529 19.0102 10.286 16.2003C8.6209 13.8214 8.04286 12.1032 8.75487 10.9028C8.89246 10.6708 9.08041 10.4616 9.30935 10.2855L11.9535 8.25177C12.7563 7.63433 12.9935 6.6639 12.5434 5.83817L11.0296 3.06077C10.5016 2.09201 9.18432 1.59662 7.95137 1.90316L5.51961 2.50774Z" fill="white"/>
</svg>
