<svg width="120" height="120" viewBox="0 0 120 120" fill="none" xmlns="http://www.w3.org/2000/svg">
<path d="M119.987 119.999C119.629 119.999 119.363 119.999 119.099 119.999C99.324 119.999 79.5488 120.002 59.7736 119.998C32.3414 119.994 8.14234 100.924 1.70393 74.2623C0.0919961 67.5919 -0.358652 60.8495 0.277322 54.0245C2.21191 33.252 15.5074 14.506 34.6119 5.6224C43.3463 1.55989 52.5366 -0.308033 62.1522 0.0412866C89.2951 1.02658 112.339 20.0658 118.471 46.5301C119.626 51.5112 120.007 56.5643 119.999 61.6708C119.969 80.8687 119.987 100.065 119.987 119.263C119.987 119.48 119.987 119.699 119.987 119.999ZM74.7997 68.6599C75.0423 68.0292 75.2556 67.4692 75.473 66.9119C76.4623 64.3774 76.7009 61.7655 76.2756 59.0869C75.0503 51.3686 67.6373 45.3395 58.995 46.8834C53.6005 47.8474 49.8833 51.0232 47.7394 56.0524C47.4821 56.6563 47.2461 57.2683 46.9834 57.9176C46.4101 57.527 45.9048 57.175 45.3902 56.835C41.6823 54.3738 37.7865 54.0471 33.7693 55.9484C29.3082 58.0603 26.7629 63.0081 27.5242 67.9039C27.7082 69.0878 27.7082 69.0878 26.7403 69.4732C22.0138 71.3544 19.2992 76.3915 20.3099 81.4073C21.2978 86.3072 25.5976 89.8803 30.6068 89.887C44.8489 89.9043 59.091 89.9083 73.3344 89.8857C76.8449 89.8803 79.6675 88.3377 81.7167 85.5405C86.0312 79.6528 83.2486 71.3704 76.3609 69.2025C75.8583 69.0438 75.3623 68.8559 74.7997 68.6599ZM45.5102 52.7765C45.7395 52.4152 46.0435 51.9312 46.3541 51.4512C50.2433 45.4515 57.6803 42.2343 64.7134 43.5062C75.2583 45.4141 81.8367 55.5311 79.3088 65.9773C79.1888 66.4733 79.2661 66.6959 79.7261 66.9493C83.446 68.9892 85.8299 72.0731 86.8032 76.2142C86.9165 76.6955 87.1738 76.7769 87.6045 76.7809C94.5362 76.8475 100.223 71.2971 100.104 64.3454C100.024 59.6522 97.8934 56.0764 93.7922 53.7298C93.1283 53.3498 92.4243 53.0418 91.739 52.7018C94.9988 43.9742 90.7683 35.1532 83.286 31.6494C79.7181 29.9788 75.9809 29.6174 72.1798 30.6027C66.8133 31.9933 63.1015 35.3865 60.8549 40.393C55.8031 37.4544 50.79 37.2971 45.9582 40.6023C42.2196 43.1582 40.4237 46.8647 40.3464 51.2726C42.121 51.7885 43.7716 52.2699 45.5102 52.7765Z" fill="white"/>
</svg>
