<svg width="121" height="120" viewBox="0 0 121 120" fill="none" xmlns="http://www.w3.org/2000/svg">
<path d="M120.015 120C119.635 120 119.349 120 119.063 120C99.3767 120 79.6907 120 60.0033 120C33.3922 120 9.94499 102.45 2.43457 76.9001C0.229314 69.395 -0.483996 61.7366 0.319978 53.9608C2.79456 30.0096 19.1167 9.9863 42.0133 2.75987C49.3424 0.447945 56.8474 -0.388027 64.5059 0.163955C88.4197 1.88656 109.282 18.094 116.889 40.8319C119.145 47.5757 120.053 54.5022 120.033 61.6019C119.98 80.844 120.015 100.086 120.015 119.328C120.015 119.525 120.015 119.721 120.015 120ZM77.6308 52.8022C82.3853 52.8022 87.1398 52.8129 91.8943 52.7956C93.4596 52.7902 94.9715 52.4969 96.3208 51.6383C98.3634 50.3396 99.5607 48.4597 99.5914 46.0584C99.6687 40.0386 99.6314 34.0175 99.6047 27.9964C99.5994 26.6817 99.0994 25.4844 98.3527 24.4112C96.8021 22.1832 94.5462 21.3499 91.9476 21.3446C82.3946 21.3233 72.8402 21.3286 63.2872 21.3433C61.7219 21.3459 60.2193 21.6672 58.8687 22.5259C56.9301 23.7578 55.7728 25.5564 55.6542 27.8004C55.4728 31.2283 55.5008 34.6681 55.4942 38.104C55.4888 40.5386 55.5675 42.9745 55.6222 45.4091C55.6355 45.9771 55.6421 46.5584 55.7621 47.1104C56.1981 49.1303 57.2861 50.6983 59.0994 51.7409C60.486 52.5382 61.9953 52.8009 63.5672 52.8022C68.2551 52.8035 72.9429 52.8022 77.6308 52.8022ZM55.5755 84.2518C55.5755 73.7015 55.5755 63.2712 55.5755 52.7956C47.0464 55.9274 38.568 59.0393 30.1017 62.1472C29.9217 61.8086 29.7723 61.5433 29.6377 61.2699C29.043 60.066 28.0004 59.538 26.7324 59.4807C24.3685 59.3753 23.0726 61.0099 22.9699 63.1765C22.9459 63.6885 22.7526 63.9538 22.3273 64.1232C21.4619 64.4658 21.2193 64.7938 21.2193 65.6685C21.2166 67.5577 21.2153 69.4457 21.2206 71.3349C21.222 72.1616 21.6246 72.7576 22.4232 72.9922C22.8419 73.1149 22.9672 73.3109 22.9619 73.7322C22.9392 75.2868 22.9352 76.8428 22.9632 78.3974C22.9726 78.94 23.0739 79.4827 23.1659 80.02C23.4845 81.8639 24.6552 83.2332 25.7778 84.6212C27.5524 86.8158 29.3484 88.9904 31.127 91.1809C33.0002 93.4889 34.8722 95.7995 36.7254 98.1234C37.0961 98.5887 37.5414 98.8034 38.1174 98.8034C39.8733 98.802 41.6279 98.81 43.3839 98.7954C43.6425 98.7927 43.9012 98.694 44.2785 98.614C43.6385 97.8194 43.0919 97.1421 42.5479 96.4634C41.3466 94.9635 40.1533 93.4569 38.944 91.9623C37.7054 90.4316 36.4495 88.9144 35.2068 87.3864C34.1855 86.1318 33.1322 84.8998 32.1683 83.6039C31.135 82.2159 30.3017 80.7333 30.263 78.9107C30.235 77.5987 30.0817 76.2894 29.975 74.8548C38.584 78.0147 47.0704 81.1293 55.5755 84.2518ZM52.0809 52.6916C51.229 51.9729 50.385 51.3876 49.697 50.657C47.7971 48.6357 48.0357 45.5198 49.8863 43.3865C51.7183 41.2746 52.8449 38.9133 52.4356 35.9868C52.1783 34.1468 51.4316 32.5735 50.2183 31.2176C48.697 29.5177 46.8931 28.2244 44.7772 27.3017C42.3799 26.2564 39.8893 25.7258 37.3081 25.6178C35.2882 25.5338 33.2896 25.8151 31.3176 26.2684C27.7351 27.0911 24.6538 28.747 22.3899 31.7082C20.2153 34.5522 19.9367 37.6614 21.4099 40.8826C22.0659 42.3186 23.0939 43.5119 24.3312 44.5385C25.9658 45.8958 27.7817 46.8997 29.815 47.4491C31.3616 47.8664 32.9469 48.233 34.5362 48.3717C36.1415 48.5117 37.7827 48.4424 39.3894 48.281C40.572 48.1624 40.7626 48.1024 41.408 49.061C42.1959 50.233 43.2679 51.0809 44.5372 51.6436C46.9424 52.7129 49.477 52.9022 52.0809 52.6916ZM61.7099 57.7394C66.9311 64.9978 66.9484 72.2056 61.7379 79.4693C63.1699 79.4693 64.4099 79.4387 65.6458 79.4827C66.2538 79.504 66.6898 79.2573 66.9938 78.8067C67.5884 77.9241 68.2097 77.0454 68.6751 76.0934C70.107 73.1655 70.6843 70.0856 70.3043 66.8111C70.015 64.3245 69.3004 62.0086 68.0097 59.8766C67.4458 58.9447 66.8804 57.8887 65.6618 57.7674C64.4272 57.6434 63.1712 57.7394 61.7099 57.7394ZM58.3887 62.9352C59.6007 64.7218 60.434 66.4924 60.434 68.5964C60.434 70.7163 59.6367 72.5189 58.3994 74.2682C59.1407 74.2682 59.7673 74.3268 60.3753 74.2455C60.73 74.1975 61.1353 73.9988 61.3753 73.7362C61.7206 73.3589 62.0006 72.8895 62.1939 72.4122C63.4232 69.3683 63.3152 66.4191 61.4886 63.6112C61.1913 63.1552 60.854 62.8685 60.2553 62.9232C59.6847 62.9779 59.1034 62.9352 58.3887 62.9352Z" fill="white"/>
<path d="M71.5083 46.3207C71.5083 40.1182 71.5083 34.0211 71.5083 27.8213C76.8401 30.8985 82.1106 33.9424 87.5291 37.069C82.1253 40.1902 76.8655 43.2274 71.5083 46.3207Z" fill="white"/>
<path d="M34.2844 37.053C34.2137 35.7464 35.427 34.7824 36.579 34.801C37.751 34.8197 38.8229 35.9063 38.8176 37.0863C38.8123 38.2956 37.7603 39.3329 36.5457 39.3369C35.4097 39.3409 34.2004 38.3849 34.2844 37.053Z" fill="white"/>
<path d="M31.8843 37.0471C31.9816 38.367 30.891 39.295 29.647 39.339C28.5324 39.3777 27.4071 38.4044 27.3804 37.1617C27.3524 35.8204 28.3964 34.8165 29.6004 34.8058C30.935 34.7925 31.883 35.7284 31.8843 37.0471Z" fill="white"/>
<path d="M45.6173 37.0775C45.6893 38.3922 44.4866 39.3361 43.3413 39.3415C41.976 39.3481 41.0947 38.0882 41.1041 37.0629C41.1134 36.0096 42.0014 34.7843 43.356 34.799C44.496 34.811 45.6973 35.7536 45.6173 37.0775Z" fill="white"/>
</svg>
