<svg width="120" height="120" viewBox="0 0 120 120" fill="none" xmlns="http://www.w3.org/2000/svg">
<path d="M119.999 57.0869C112.535 57.1004 105.233 58.0327 98.2624 60.6291C96.1579 61.4121 94.1281 62.409 92.1617 63.4691C89.3972 64.9597 87.4626 67.1256 86.1398 69.9091C81.0471 80.6191 75.8122 91.2699 70.6754 101.961C70.2377 102.872 69.7116 103.302 68.6373 103.375C60.1159 103.951 51.6001 104.601 43.0774 105.164C38.6476 105.456 35.444 108.455 35.4357 112.481C35.4274 116.533 38.7387 119.883 43.1423 119.918C53.7639 120.004 64.3869 119.975 75.0086 119.924C77.9001 119.91 80.1634 118.66 81.6768 116.294C82.9389 114.318 84.2328 112.359 85.8277 110.47C85.8277 113.583 85.8277 116.696 85.8277 120C97.3358 120 108.669 120 120 120C119.999 99.0296 119.999 78.0576 119.999 57.0869Z" fill="white"/>
<path d="M120 0C113.75 0.470858 108.181 2.37716 103.842 6.80727C100.227 10.4988 98.5256 14.8589 98.9799 19.8662C99.6207 26.9344 101.568 33.7013 104.847 40.0889C105.915 42.1687 107.311 44.1369 108.808 45.9773C111.626 49.4455 115.216 51.8805 120 52.4281C120 34.9525 120 17.4756 120 0Z" fill="white"/>
<path d="M68.6671 94.4079C47.2954 94.4079 26.2054 94.4079 4.99118 94.4079C4.99118 78.8844 4.99118 63.4268 4.99118 47.8427C28.5225 47.8427 52.1133 47.8427 75.8228 47.8427C75.8228 58.2245 75.8228 68.5901 75.8228 78.9557C75.9277 78.9839 76.034 79.0135 76.139 79.0418C77.6676 75.8426 79.2087 72.6489 80.7055 69.4363C80.8588 69.1067 80.758 68.6681 80.758 68.2806C80.758 60.9514 80.7566 53.6221 80.7539 46.2929C80.7525 43.8996 79.9681 43.1597 77.4273 43.1597C52.9114 43.157 28.3955 43.1556 3.87959 43.1543C0.595886 43.1543 -0.000656128 43.7207 -0.000656128 46.8041C-0.000656128 63.1133 -0.000656128 79.4225 -0.000656128 95.7317C-0.000656128 98.2905 0.746391 98.9793 3.52055 98.9793C22.7505 98.9793 41.9791 98.986 61.2091 98.9671C62.7598 98.9658 64.3132 98.8353 65.8557 98.6806C66.2285 98.6429 66.716 98.347 66.8858 98.0416C67.5072 96.9344 68.0112 95.7734 68.6671 94.4079Z" fill="white"/>
<path d="M44.0304 87.3229C45.802 87.2812 46.799 85.8767 46.353 84.1896C44.9238 78.7828 43.4794 73.3787 42.0391 67.9733C41.0615 64.3073 40.0894 60.64 39.0965 56.9781C38.6671 55.3906 37.4754 54.5659 36.129 54.87C34.6653 55.1996 34.0108 56.4211 34.4527 58.0839C36.8498 67.1082 39.2664 76.1285 41.6525 85.1569C41.9908 86.4417 42.7379 87.2072 44.0304 87.3229Z" fill="white"/>
<path d="M37.6934 101.484C33.8808 101.484 30.3927 101.484 26.7679 101.484C26.7679 104.739 26.7679 107.918 26.7679 111.315C25.5721 111.315 24.5088 111.315 23.4442 111.315C20.8054 111.315 18.1651 111.281 15.5263 111.331C14.144 111.356 13.1208 112.338 13.0711 113.511C13.0214 114.671 14.0073 115.817 15.3606 115.833C20.4228 115.893 25.4865 115.858 30.6965 115.858C29.4454 109.61 31.4753 104.802 37.6934 101.484Z" fill="white"/>
<path d="M57.2464 71.0812C55.1931 73.648 53.2074 76.0669 51.3101 78.5477C50.8558 79.1409 50.3476 80.0127 50.4995 80.6167C50.6804 81.3378 51.4454 82.2796 52.14 82.441C52.8967 82.6186 54.1961 82.2648 54.6808 81.7038C57.2823 78.693 59.7099 75.5517 62.183 72.444C62.9273 71.5103 62.8762 70.5471 62.1402 69.6256C59.6933 66.5596 57.263 63.4829 54.7733 60.4492C53.8274 59.2976 52.4714 59.1685 51.3612 59.973C50.2634 60.7681 50.059 62.0057 50.9759 63.195C52.6398 65.3556 54.3784 67.4664 56.0824 69.5987C56.451 70.0588 56.8114 70.5256 57.2464 71.0812Z" fill="white"/>
<path d="M23.5052 71.0763C25.455 68.6333 27.3399 66.2709 29.2234 63.9072C29.4705 63.5964 29.7357 63.2951 29.9497 62.9655C30.6829 61.8354 30.4606 60.821 29.4139 59.9883C28.4252 59.2026 27.0457 59.2188 26.2158 60.2183C23.5494 63.4296 20.9174 66.6718 18.4512 70.0189C18.0508 70.5611 18.2455 71.8983 18.7053 72.5172C21.01 75.6167 23.4707 78.6154 25.9258 81.6141C26.9035 82.8074 28.1808 82.9783 29.3228 82.2182C30.5048 81.4312 30.7244 80.137 29.7577 78.898C27.7431 76.3163 25.669 73.7764 23.5052 71.0763Z" fill="white"/>
</svg>
