<svg width="33" height="36" viewBox="0 0 33 36" fill="none" xmlns="http://www.w3.org/2000/svg">
<path d="M8.80521 10.7105C8.80521 12.7099 8.7595 14.714 8.82446 16.711C8.86055 17.784 8.61274 18.4144 7.40014 18.3374C5.97581 18.2484 4.51299 18.3807 3.13438 18.0896C1.14465 17.671 0.0643808 16.2178 0.0379152 14.2016C-0.0102039 10.7611 -0.0150158 7.32054 0.0379152 3.88003C0.0740046 1.63527 1.85922 0.0521518 4.24593 0.00162675C6.82752 -0.0537102 8.62236 1.30565 8.74266 3.63462C8.86536 5.98764 8.76913 8.3527 8.76913 10.7129C8.78116 10.7105 8.79318 10.7105 8.80521 10.7105Z" fill="white"/>
<path d="M32.6218 28.2759C32.6218 30.4365 32.5905 32.597 32.6386 34.7576C32.6579 35.5756 32.3403 35.9798 31.568 35.9774C30.1364 35.9726 28.6784 36.0857 27.283 35.8427C25.0502 35.4505 23.8954 33.9901 23.8593 31.7164C23.8064 28.3553 23.7943 24.9942 23.8593 21.6355C23.9074 19.2392 25.8346 17.5815 28.3488 17.6127C30.8654 17.644 32.5689 19.2344 32.6146 21.6788C32.6555 23.873 32.6218 26.0745 32.6218 28.2759Z" fill="white"/>
<path d="M20.7123 19.8672C20.7123 21.9483 20.6305 24.0343 20.7436 26.1106C20.8109 27.3353 20.3682 27.802 19.2206 27.7683C17.9864 27.7323 16.7329 27.8333 15.5251 27.6384C13.3212 27.2823 12.0653 25.9446 12.0003 23.7384C11.8945 20.2209 11.8752 16.6937 11.9907 13.1738C12.0701 10.7631 14.0406 9.27618 16.6366 9.38444C19.1075 9.48549 20.6882 11.0686 20.7099 13.501C20.7267 15.6231 20.7123 17.7451 20.7123 19.8672Z" fill="white"/>
</svg>
