<svg width="120" height="120" viewBox="0 0 120 120" fill="none" xmlns="http://www.w3.org/2000/svg">
<path d="M114.894 17.8723H46.473V5.10638C46.473 2.30769 44.1653 0 41.3666 0H5.10638C2.30769 0 0 2.30769 0 5.10638V41.0966C0 43.8953 2.30769 46.2029 5.10638 46.2029H17.8723V114.894C17.8723 117.692 20.18 120 22.9787 120C25.7774 120 28.0851 117.692 28.0851 115.139V46.2029H41.0966C43.8953 46.2029 46.2029 43.8953 46.4484 41.3421V28.0851H114.869C117.668 28.0851 119.975 25.7774 119.975 22.9787C120 20.1555 117.717 17.8723 114.894 17.8723ZM36.2602 36.2602H9.94272V9.94272H36.2357V36.2602H36.2602Z" fill="white"/>
</svg>
