<svg width="104" height="100" viewBox="0 0 104 100" fill="none" xmlns="http://www.w3.org/2000/svg">
<path d="M0.0420291 100C0.653361 99.2502 1.14243 98.6253 1.63149 98.0005C3.22096 95.751 4.44362 93.2516 5.29949 90.5022C6.52215 86.7531 7.37801 82.879 7.86708 78.88C8.11161 77.1304 8.23388 75.2558 8.47841 73.5062C8.47841 73.3812 8.35615 73.1313 8.35615 73.0063C5.17722 68.5074 2.85416 63.5085 1.38696 58.1348C0.042029 53.011 -0.32477 47.8872 0.286562 42.6384C1.38696 32.7657 5.42175 24.1428 12.0241 16.8945C19.4824 8.89633 28.6524 3.77252 39.2895 1.39808C42.8353 0.648255 46.381 0.148372 49.9267 0.0234016C58.9744 -0.22654 67.5331 1.52305 75.7249 5.39714C84.6504 9.77112 91.8641 16.0197 96.9993 24.6426C100.056 29.7664 102.134 35.3901 102.868 41.3887C104.458 53.7608 101.279 64.6333 93.8204 74.381C89.2965 80.2546 83.7945 84.7536 77.3144 88.1278C71.8124 91.0021 65.9436 92.8767 59.708 93.7515C55.1842 94.3763 50.6603 94.5013 46.0142 94.0014C41.8571 93.6265 37.9446 92.7517 33.9098 91.377C34.0321 91.2521 34.1544 91.1271 34.2766 91.1271C36.9665 89.2525 39.5341 87.5029 42.2239 85.6284C42.713 85.3784 43.0798 84.8785 43.4466 84.5036C44.1802 83.8788 43.9357 82.6291 43.3243 82.1292C42.713 81.5043 41.6126 81.3794 41.0013 82.0042C40.1454 82.6291 39.4118 83.3789 38.4337 84.0037C35.6216 85.8783 32.9317 87.8778 30.1196 89.6274C27.4297 91.377 24.373 92.7517 21.4387 94.0014C15.9367 96.2509 10.3124 97.7505 4.56589 99.0002C3.09869 99.5001 1.63149 99.7501 0.0420291 100ZM58.6076 55.2605C58.3631 55.2605 58.1186 55.2605 57.874 55.2605C54.206 55.2605 50.5381 55.2605 46.8701 55.2605C45.7697 55.2605 45.0361 54.8856 44.3025 54.1357C38.9227 48.5121 33.4208 43.0133 28.041 37.3897C27.9188 37.2647 27.7965 37.1397 27.6742 36.8898C24.0062 46.1376 25.9625 60.2593 37.7001 68.1325C48.7041 75.5057 63.6206 73.1313 71.9347 62.3838C80.2488 51.7613 79.1484 36.3899 69.4893 26.8921C59.9526 17.6443 47.1146 18.5191 40.2677 22.5181C40.3899 22.6431 40.5122 22.6431 40.5122 22.7681C43.4466 25.7674 46.381 28.7667 49.3154 31.766C51.883 34.3904 54.4506 37.0147 57.1404 39.6391C58.2408 40.6389 58.8522 42.0136 58.8522 43.5132C58.8522 44.513 58.8522 45.5128 58.8522 46.5125C58.8522 49.1369 58.8522 51.7613 58.8522 54.3857C58.6076 54.7606 58.6076 55.0105 58.6076 55.2605ZM54.6951 46.8874C54.5728 45.6377 54.5728 44.513 54.4506 43.3883C54.4506 43.2633 54.3283 43.1383 54.206 43.0133C53.5947 42.3885 52.9834 41.7636 52.4943 41.1388C52.2498 40.8888 51.883 40.5139 51.5162 40.139C48.9486 43.0133 46.5033 45.7627 44.1802 48.3871C44.9138 49.2619 45.5251 50.0117 46.2587 50.7615C46.6255 51.2614 47.1146 51.3864 47.7259 51.3864C48.5818 51.2614 49.5599 51.2614 50.5381 51.2614C50.5381 49.7618 50.5381 48.3871 50.5381 47.0124C51.883 46.8874 53.3502 46.8874 54.6951 46.8874ZM35.1325 26.0173C35.2548 26.1423 35.2548 26.1423 35.377 26.2673C36.3552 27.267 37.211 28.1418 38.1891 29.1416C41.3681 32.3908 44.4247 35.5151 47.6037 38.7643C47.7259 38.8893 47.8482 39.0143 47.9705 39.1392C48.3373 39.3892 48.7041 39.2642 48.9486 39.0143C49.1931 38.7643 49.1931 38.3894 49.0709 38.0145C48.9486 37.8895 48.8263 37.7646 48.7041 37.6396C44.6693 33.5156 40.7567 29.5165 36.722 25.3925C36.5997 25.2675 36.5997 25.1425 36.4774 25.0176C35.8661 25.3925 35.4993 25.7674 35.1325 26.0173Z" fill="black"/>
</svg>
