<svg width="36" height="25" viewBox="0 0 36 25" fill="none" xmlns="http://www.w3.org/2000/svg">
<path d="M4.76831 5.98135L12.5739 12.5004L4.76831 19.0195C4.29873 19.4117 4.24836 20.096 4.65599 20.5479C5.06361 20.9998 5.7747 21.0481 6.24428 20.656L14.2917 13.9351L17.3904 16.5231C17.6021 16.6999 17.8653 16.7883 18.1284 16.7883C18.3916 16.7883 18.6547 16.6999 18.8664 16.5231L21.9652 13.9351L30.0126 20.656C30.4822 21.0482 31.1932 20.9998 31.6009 20.5479C32.0085 20.096 31.9581 19.4117 31.4885 19.0195L23.683 12.5004L31.4885 5.98135C31.9582 5.5891 32.0085 4.90484 31.6009 4.4529C31.1932 4.00095 30.482 3.95262 30.0126 4.3448C29.3578 4.89164 18.8256 13.6879 18.1284 14.2701C17.4311 13.6877 6.89882 4.89149 6.24428 4.3448C5.7747 3.95262 5.06354 4.0011 4.65599 4.4529C4.24836 4.90484 4.29873 5.5891 4.76831 5.98135Z" fill="white"/>
<path d="M34.3725 0.416992H1.88466C1.26289 0.416992 0.758789 0.902156 0.758789 1.50047V23.5003C0.758789 24.0986 1.26289 24.5837 1.88466 24.5837H34.3724C34.9943 24.5837 35.4983 24.0986 35.4983 23.5003V1.50047C35.4984 0.902156 34.9943 0.416992 34.3725 0.416992ZM33.2466 22.4168H33.2465H3.01061V2.58388H33.2466V22.4168Z" fill="white"/>
</svg>
