<svg width="36" height="25" viewBox="0 0 36 25" fill="none" xmlns="http://www.w3.org/2000/svg">
<path d="M4.76685 5.98086L12.5724 12.4999L4.76685 19.019C4.29727 19.4112 4.24689 20.0955 4.65452 20.5474C5.06215 20.9993 5.77323 21.0476 6.24281 20.6555L14.2902 13.9346L17.389 16.5226C17.6007 16.6994 17.8638 16.7878 18.127 16.7878C18.3901 16.7878 18.6532 16.6994 18.8649 16.5226L21.9637 13.9346L30.0111 20.6555C30.4807 21.0477 31.1918 20.9993 31.5994 20.5474C32.007 20.0955 31.9567 19.4112 31.4871 19.019L23.6815 12.4999L31.4871 5.98086C31.9567 5.58861 32.007 4.90435 31.5994 4.45241C31.1918 4.00046 30.4805 3.95214 30.0111 4.34432C29.3563 4.89115 18.8241 13.6874 18.127 14.2696C17.4296 13.6872 6.89735 4.891 6.24281 4.34432C5.77323 3.95214 5.06207 4.00061 4.65452 4.45241C4.24689 4.90435 4.29727 5.58861 4.76685 5.98086Z" fill="#555555"/>
<path d="M34.3715 0.416748H1.88368C1.26192 0.416748 0.757812 0.901912 0.757812 1.50023V23.5C0.757812 24.0984 1.26192 24.5834 1.88368 24.5834H34.3714C34.9933 24.5834 35.4973 24.0984 35.4973 23.5V1.50023C35.4974 0.901912 34.9934 0.416748 34.3715 0.416748ZM33.2456 22.4165H33.2456H3.00963V2.58363H33.2456V22.4165Z" fill="#555555"/>
</svg>
