<svg width="16" height="30" viewBox="0 0 16 30" fill="none" xmlns="http://www.w3.org/2000/svg">
<path d="M0 16.6871C0 14.908 0 13.1288 0 11.2883C1.47239 11.2883 2.88344 11.2883 4.35583 11.2883C4.35583 11.1043 4.35583 10.9816 4.35583 10.8589C4.35583 9.2638 4.29448 7.66871 4.41718 6.07362C4.53988 4.04908 5.33742 2.26994 7.11656 1.04294C8.15951 0.368098 9.2638 0 10.4908 0C12.0245 0 13.4969 0.0613497 15.0307 0.122699C15.0307 1.77914 15.0307 3.37423 15.0307 4.96933C14.908 4.96933 14.7853 4.96933 14.6626 4.96933C13.8037 4.96933 12.8834 4.96933 12.0245 4.96933C10.4908 5.03068 9.8773 5.58282 9.7546 7.11656C9.69325 8.46626 9.7546 9.81595 9.7546 11.227C11.3497 11.227 13.0061 11.227 14.6012 11.227C14.3558 13.0061 14.1718 14.7853 13.9264 16.5644C12.5153 16.5644 11.1656 16.5644 9.7546 16.5644C9.7546 21.0429 9.7546 25.5215 9.7546 30C7.97546 30 6.19632 30 4.41718 30C4.41718 25.5215 4.41718 21.1043 4.41718 16.5644C2.88344 16.6871 1.41104 16.6871 0 16.6871Z" fill="white"/>
</svg>
