<svg width="31" height="24" viewBox="0 0 31 24" fill="none" xmlns="http://www.w3.org/2000/svg">
<path d="M11.4779 22.8644L26.2995 14.0515C30.4656 11.5813 31.427 6.70748 28.4627 3.23575C25.4983 -0.235975 19.6498 -1.03714 15.4837 1.43312L3.70656 8.44334C3.30598 8.64364 3.22586 9.04422 3.46621 9.37804L3.70656 9.71186C4.02703 9.97892 4.50773 10.0457 4.90832 9.84539L16.6855 2.7684C19.9703 0.832249 24.4568 1.43313 26.7802 4.17045C29.1036 6.90777 28.3024 10.6466 25.0977 12.5827L10.2761 21.4623C7.95275 22.8644 4.74808 22.397 3.06563 20.4609C1.38318 18.5247 1.944 15.8541 4.26738 14.4521L16.6054 7.10806C17.9674 6.3069 19.9703 6.57395 20.9317 7.70894C21.8931 8.84393 21.5726 10.513 20.2106 11.3142L10.7568 16.9891C10.4364 17.1894 10.3563 17.59 10.5966 17.9238L10.9171 18.2577C11.1574 18.5247 11.6381 18.5915 12.0387 18.3912L21.4925 12.783C23.8159 11.381 24.3767 8.7104 22.6942 6.77424C21.0919 4.83809 17.8071 4.37074 15.4837 5.77278L3.14575 13.1168C-0.139041 15.053 -0.860093 18.8585 1.46329 21.5291C3.70656 24.1996 8.1931 24.8005 11.4779 22.8644Z" fill="#222222"/>
</svg>
