<svg width="30" height="30" viewBox="0 0 30 30" fill="none" xmlns="http://www.w3.org/2000/svg">
<path d="M15 0C6.72896 0 0 6.72896 0 15C0 23.2708 6.72896 30 15 30C23.2708 30 30 23.2709 30 15C30 6.72896 23.2708 0 15 0ZM27.2522 20.5169C27.1609 20.5275 27.0696 20.5531 26.9836 20.5983C26.9489 20.6167 25.8811 21.1615 24.0821 21.7546C24.574 19.6691 24.7893 17.6633 24.8237 15.7792H28.4173C28.3205 17.4594 27.9128 19.0566 27.2522 20.5169ZM20.4717 27.2727C19.0254 27.9202 17.4458 28.3205 15.7853 28.4172V24.8596C18.0248 24.7829 20.0516 24.4616 21.7742 24.0573C21.4339 25.0378 21.0313 26.0278 20.5428 27.0224C20.5033 27.1038 20.4821 27.1884 20.4717 27.2727ZM9.40761 27.0041C9.38974 26.9692 8.84885 25.9095 8.25818 24.123C10.3399 24.6154 12.3453 24.8365 14.2267 24.8719V28.4179C12.5452 28.3221 10.947 27.9143 9.48549 27.2537C9.47304 27.1685 9.44968 27.0842 9.40761 27.0041ZM2.74797 20.5177C2.08749 19.0574 1.6792 17.4594 1.58297 15.7792H5.14634C5.22151 18.0409 5.54719 20.0828 5.95604 21.8171C4.978 21.4773 3.99121 21.0758 2.99843 20.5888C2.91701 20.5489 2.83287 20.5276 2.74797 20.5177ZM2.72218 9.53917C2.82251 9.53103 2.9225 9.50266 3.01727 9.45315C3.05155 9.43466 4.10148 8.8994 5.87212 8.31193C5.38797 10.3726 5.17367 12.356 5.13709 14.2204H1.58262C1.67809 12.5622 2.07706 10.9842 2.72218 9.53917ZM9.49202 2.74359C10.9515 2.0852 12.5478 1.67809 14.2267 1.58255V5.19237C11.9597 5.269 9.9136 5.59719 8.17801 6.00777C8.5201 5.01931 8.92492 4.02166 9.41721 3.01873C9.46101 2.92987 9.48389 2.83642 9.49202 2.74359ZM20.5528 3.03737C20.5707 3.07199 21.1112 4.13145 21.7017 5.91703C19.6379 5.43267 17.652 5.21886 15.7852 5.18285V1.58331C17.4434 1.67955 19.0208 2.07887 20.4658 2.72496C20.4729 2.83093 20.5003 2.93731 20.5528 3.03737ZM15.7853 6.77916C17.8089 6.81435 19.9782 7.07293 22.2222 7.67216C22.6982 9.47144 23.1137 11.7054 23.2108 14.2208H15.7853V6.77916ZM14.2267 6.79404V14.2208H6.73411C6.77026 12.1987 7.02969 10.0313 7.62933 7.78911C9.43883 7.309 11.6903 6.88986 14.2267 6.79404ZM6.74836 15.7792H14.2267V23.2717C12.1873 23.2373 10.0006 22.9771 7.73759 22.3687C7.25921 20.5596 6.84237 18.3113 6.74836 15.7792ZM15.7853 23.2564V15.7792H23.2267C23.1932 17.8202 22.9329 20.0087 22.3253 22.274C20.5263 22.7488 18.2958 23.1613 15.7853 23.2564ZM24.8133 14.2208C24.7357 11.9735 24.41 9.9444 24.0036 8.22C24.9952 8.5628 25.9966 8.96879 27.0034 9.46289C27.0917 9.50607 27.1837 9.52644 27.2762 9.53499C27.9226 10.9816 28.3221 12.5607 28.418 14.2208H24.8133ZM26.0194 7.31644C25.1802 6.9685 24.3478 6.67055 23.5244 6.41683C23.2329 5.4445 22.9358 4.62513 22.6762 3.97494C23.9773 4.88379 25.11 6.01591 26.0194 7.31644ZM7.26394 4.01805C6.92045 4.84902 6.62494 5.67312 6.37358 6.48852C5.42301 6.77423 4.6188 7.06508 3.97765 7.32082C4.87315 6.03892 5.9865 4.92036 7.26394 4.01805ZM4.03877 22.7655C4.8452 23.0977 5.64551 23.3841 6.4372 23.6292C6.71297 24.5509 6.99513 25.3362 7.24489 25.9684C6.00444 25.0887 4.9196 24.0052 4.03877 22.7655ZM22.7033 26.005C23.0403 25.1885 23.3309 24.3788 23.5791 23.5775C24.5219 23.2955 25.3275 23.0068 25.9704 22.7527C25.076 24.0152 23.9702 25.1161 22.7033 26.005Z" fill="#555555"/>
</svg>
