<svg width="30" height="30" viewBox="0 0 30 30" fill="none" xmlns="http://www.w3.org/2000/svg">
<path d="M0 14.9809C0 12.9662 0 10.8904 0 8.8756C0 7.22717 0.488425 5.70084 1.34317 4.29662C2.68634 2.15976 4.64004 0.816586 7.08217 0.206054C7.87586 0.0228949 8.7306 -0.0381582 9.58535 0.0228949C10.1959 0.0839481 10.8064 0.0228949 11.3559 0.0228949C12.0275 0.0228949 12.638 0.0228949 13.3096 0.0228949C15.8128 0.0228949 18.377 0.0228949 20.8802 0.0228949C21.9181 0.0228949 22.956 0.145001 23.9939 0.572373C27.1076 1.79344 29.0613 3.99135 29.7939 7.28822C29.9161 7.8377 29.9771 8.38718 29.9771 8.93666C29.9771 13.0272 29.9771 17.1178 29.9771 21.2083C29.9771 23.4063 29.1834 25.36 27.7181 27.0084C26.3139 28.5958 24.4823 29.5726 22.4065 29.8779C21.9181 29.9389 21.4297 30 20.9412 30C18.377 30 15.7517 30 13.1875 30C12.1496 30 11.1117 29.9389 10.0127 30C9.21903 30 8.36428 30 7.57059 29.8779C6.04426 29.6337 4.70109 29.0231 3.48003 28.0463C1.70949 26.6421 0.610532 24.8105 0.18316 22.5515C0.0610532 22.0631 0.0610532 21.5136 0.0610532 21.0252C1.36464e-08 18.9494 0 16.9957 0 14.9809ZM14.958 27.1305C17.0338 27.1305 19.0486 27.1305 21.1244 27.1305C22.1012 27.1305 23.017 26.8863 23.8107 26.3979C25.9476 25.1768 27.1076 23.3452 27.1076 20.842C27.1076 18.2167 27.1076 15.6525 27.1076 13.0272C27.1076 11.684 27.1076 10.4019 27.1076 9.05876C27.1076 8.32613 26.9855 7.53243 26.7413 6.86085C25.8865 4.47978 23.5055 2.83134 21.0023 2.83134C16.9728 2.83134 13.0043 2.83134 8.97482 2.83134C8.6085 2.83134 8.30323 2.89239 7.93691 2.95345C4.94531 3.50293 2.80845 6.06716 2.80845 9.05876C2.80845 13.0272 2.80845 16.9957 2.80845 20.9031C2.80845 21.2694 2.80845 21.6968 2.93055 22.0631C3.48003 25.0547 6.04426 27.1305 9.09692 27.1305C10.9896 27.1305 13.0043 27.1305 14.958 27.1305Z" fill="white"/>
<path d="M15.0803 7.59375C19.1709 7.59375 22.4677 10.8906 22.4677 14.9812C22.4677 19.0107 19.1709 22.3076 15.0803 22.3076C11.0508 22.3076 7.75392 19.0107 7.69287 14.9812C7.69287 10.9517 11.0508 7.59375 15.0803 7.59375ZM15.0803 19.6823C17.6445 19.6823 19.8425 17.5454 19.8425 14.9812C19.8425 12.3559 17.7666 10.219 15.0803 10.219C12.5161 10.219 10.3792 12.2948 10.3792 14.9201C10.3792 17.6065 12.455 19.6823 15.0803 19.6823Z" fill="white"/>
<path d="M22.8951 5.39551C23.8719 5.39551 24.6656 6.1892 24.6656 7.16605C24.6656 8.1429 23.8719 8.93659 22.8951 8.93659C21.9182 8.93659 21.1245 8.1429 21.1245 7.16605C21.1245 6.12815 21.9182 5.39551 22.8951 5.39551Z" fill="white"/>
</svg>
