<svg width="40" height="40" viewBox="0 0 40 40" fill="none" xmlns="http://www.w3.org/2000/svg">
<path d="M1.25771 13.0223C1.38743 13.1547 1.50365 13.2764 1.61986 13.3953C5.69273 17.4681 9.7656 21.5383 13.8385 25.6112C14.0736 25.8463 14.3087 26.0787 14.5466 26.3112C14.9168 26.6706 15.36 26.8436 15.8762 26.8436C17.9519 26.8463 20.0302 26.8544 22.1058 26.8598C23.0815 26.8625 24.0544 26.8625 25.0301 26.8625C25.1517 26.8625 25.2733 26.849 25.4138 26.8409C25.4138 26.5868 25.4138 26.3436 25.4138 26.0976C25.4165 24.3599 25.4192 22.6248 25.4274 20.887C25.4301 20.1789 25.4463 19.4708 25.4598 18.7627C25.4625 18.6411 25.4895 18.5195 25.4895 18.3978C25.5003 17.0952 25.0301 15.9979 24.0977 15.0817C21.7923 12.8169 19.4978 10.5413 17.2059 8.26297C15.1844 6.24951 13.1709 4.22794 11.1547 2.21448C11.1223 2.18205 11.0818 2.16313 11.0358 2.1307C17.3573 -1.19624 27.3462 -1.17192 34.4325 6.15762C41.3972 13.3655 41.8702 24.795 35.546 32.5704C29.0678 40.5324 17.8384 42.2648 9.40074 36.9433C0.533402 31.3489 -1.75843 20.9545 1.25771 13.0223Z" fill="#F05A22"/>
<path d="M14.166 21.7303C16.0957 19.6168 18.0173 17.5088 19.9524 15.3899C20.001 15.4304 20.0523 15.4629 20.0929 15.5061C20.7713 16.1899 21.4469 16.8736 22.1199 17.5628C22.1793 17.625 22.2253 17.7223 22.2334 17.8087C22.2766 18.2925 22.309 18.779 22.3415 19.2655C22.3631 19.5844 22.3874 19.9033 22.409 20.2195C22.4145 20.2925 22.409 20.3654 22.409 20.4492C21.3091 20.4492 20.2145 20.4492 19.1037 20.4492C19.1037 21.5438 19.1037 22.6248 19.1037 23.7221C18.8227 23.7356 18.5524 23.7491 18.2848 23.7599C17.7011 23.7816 17.1146 23.8032 16.5308 23.8248C16.4092 23.8302 16.3119 23.8005 16.22 23.7113C15.5525 23.0654 14.8795 22.4221 14.2093 21.7789C14.1984 21.7681 14.1876 21.7546 14.166 21.7303Z" fill="#F05A22"/>
<path d="M7.18359 4.63352C7.4944 4.38758 7.79709 4.14975 8.10789 3.90381C8.14843 3.94165 8.18087 3.96867 8.21059 4.0011C11.3673 7.15778 14.5239 10.3145 17.6779 13.4711C17.7509 13.5441 17.8212 13.6171 17.8833 13.6982C18.0725 13.9468 18.0482 14.2657 17.8266 14.4765C17.6104 14.6819 17.2779 14.6927 17.0428 14.4981C17.0023 14.463 16.9644 14.4252 16.9266 14.3873C13.7159 11.1712 10.5024 7.95776 7.289 4.74162C7.25656 4.7119 7.22684 4.67946 7.18359 4.63352Z" fill="#F05A22"/>
</svg>
