<svg width="30" height="30" viewBox="0 0 30 30" fill="none" xmlns="http://www.w3.org/2000/svg">
<path fill-rule="evenodd" clip-rule="evenodd" d="M14.9995 0C6.71531 0 0 6.71531 0 14.9995C0 21.3543 3.95359 26.7812 9.53312 28.9672C9.40253 27.78 9.2839 25.9609 9.58554 24.6642C9.85776 23.4944 11.3439 17.2085 11.3439 17.2085C11.3439 17.2085 10.896 16.31 10.896 14.9821C10.896 12.8954 12.1045 11.3393 13.6099 11.3393C14.8892 11.3393 15.5072 12.2994 15.5072 13.4518C15.5072 14.7384 14.6887 16.6623 14.2657 18.4464C13.9116 19.939 15.0143 21.1566 16.4866 21.1566C19.1527 21.1566 21.2017 18.3452 21.2017 14.2877C21.2017 10.6965 18.6211 8.18491 14.9361 8.18491C10.6689 8.18491 8.16284 11.3862 8.16284 14.6951C8.16284 15.9836 8.65945 17.3667 9.2793 18.1172C9.40253 18.2661 9.42001 18.3967 9.38414 18.5476C9.2701 19.0221 9.0172 20.0402 8.96662 20.2498C8.90132 20.523 8.74958 20.5818 8.46541 20.4494C6.59207 19.5776 5.42043 16.8388 5.42043 14.6381C5.42043 9.9065 8.8581 5.56206 15.3315 5.56206C20.5349 5.56206 24.5786 9.2701 24.5786 14.2252C24.5786 19.3946 21.3194 23.5542 16.7947 23.5542C15.2754 23.5542 13.8463 22.7651 13.357 21.8316C13.357 21.8316 12.6048 24.6964 12.4227 25.3981C12.0842 26.7003 11.1701 28.3345 10.5585 29.3305C11.9619 29.7646 13.4536 29.9991 14.9995 29.9991C23.2838 29.9991 30 23.2829 30 14.9995C30 6.71531 23.2838 0 14.9995 0Z" fill="white"/>
</svg>
