<svg width="101" height="100" viewBox="0 0 101 100" fill="none" xmlns="http://www.w3.org/2000/svg">
<path d="M0 49.8874C0 22.2471 21.91 0 49.2133 0C77.7525 0 99.9996 21.6853 100.112 49.5504C100.224 77.4154 77.7525 99.8872 49.8874 99.9996C22.4718 100.112 0 77.5278 0 49.8874ZM91.3479 49.8874C91.3479 26.9662 72.921 8.31457 50.2245 8.20221C27.3033 8.20221 8.08985 27.3033 8.31457 49.9998C8.53929 72.6963 27.4156 91.4603 49.9998 91.3479C72.8087 91.3479 91.3479 72.8087 91.3479 49.8874Z" fill="#F05A22"/>
<path d="M29.2129 49.9991C36.6286 41.2351 43.1454 33.707 49.9993 25.6172C56.7409 33.5947 63.2577 41.1227 70.561 49.662C65.9543 49.662 62.3588 49.662 57.8645 49.662C57.8645 55.9541 57.6397 61.7968 57.9768 67.4148C58.2015 73.0327 55.5049 74.381 50.4488 74.381C45.3926 74.381 42.0218 73.5945 42.2465 67.5271C42.4713 61.9092 42.2465 56.4036 42.2465 49.9991C38.0893 49.9991 34.3814 49.9991 29.2129 49.9991Z" fill="#F05A22"/>
</svg>
