<svg width="31" height="29" viewBox="0 0 31 29" fill="none" xmlns="http://www.w3.org/2000/svg">
<path d="M27.8496 18.8097C28.4335 17.3229 28.7292 15.7617 28.7292 14.1614C28.7292 10.6491 27.3085 7.34774 24.7287 4.86527C22.149 2.38294 18.7182 1.0158 15.0684 1.0158C13.4137 1.0158 11.8048 1.2963 10.2784 1.85026C9.15933 0.668851 7.59613 0 5.91937 0C2.65543 0 0 2.55533 0 5.69616C0 7.37532 0.779516 8.96964 2.10688 10.0479C1.64265 11.3859 1.40751 12.7675 1.40751 14.1614C1.40751 17.6735 2.82817 20.9749 5.40781 23.4573C7.98746 25.9398 11.4184 27.307 15.0684 27.307C16.5337 27.307 17.9915 27.0745 19.4095 26.6153C20.512 28.0979 22.3087 29 24.2174 29C27.4813 29 30.1367 26.4447 30.1367 23.3038C30.1367 21.5355 29.2909 19.8904 27.8496 18.8097ZM24.2174 27.766C22.5829 27.766 21.0528 26.9202 20.2244 25.5587C20.1065 25.3651 19.8931 25.2534 19.6709 25.2534C19.5954 25.2534 19.5189 25.2663 19.4448 25.2932C18.0195 25.8106 16.5471 26.0729 15.0684 26.0729C11.761 26.0729 8.65219 24.8341 6.31467 22.5847C3.97722 20.3354 2.68999 17.3439 2.68999 14.1614C2.68999 12.7652 2.95116 11.3816 3.4663 10.049C3.56736 9.78738 3.47342 9.49306 3.23714 9.33121C2.01313 8.4928 1.28241 7.13388 1.28241 5.69616C1.28241 3.23572 3.36256 1.23404 5.91937 1.23404C7.35971 1.23404 8.69343 1.86513 9.57848 2.96553C9.75603 3.18611 10.0652 3.26472 10.3327 3.15724C11.831 2.55515 13.4244 2.24991 15.0683 2.24991C18.3756 2.24991 21.4843 3.48864 23.8219 5.73799C26.1594 7.98734 27.4468 10.9788 27.4468 14.1614C27.4468 15.7625 27.1203 17.3203 26.4765 18.7914C26.3558 19.0671 26.4581 19.3864 26.719 19.549C28.0561 20.3816 28.8543 21.7852 28.8543 23.3038C28.8543 25.7643 26.7742 27.766 24.2174 27.766Z" fill="#555555"/>
<path d="M16.0173 12.2254C11.581 11.3957 11.2937 10.0916 12.3611 9.18219C13.4297 8.27357 16.6036 7.86418 17.4956 9.45899C18.3589 10.9999 18.9753 11.6325 20.1657 11.3557C21.3031 11.0918 21.4668 9.57734 20.9877 8.66834C20.6013 7.93427 18.8515 6.05933 15.4008 6.05933C11.9506 6.05933 8.33571 7.28479 8.33571 10.3283C8.33571 13.3718 11.6222 14.7156 14.785 15.1508C17.9471 15.5853 18.6866 16.8902 18.2771 17.8392C17.8667 18.7869 16.51 19.6956 14.4565 19.4985C12.4022 19.3015 11.4545 17.6461 11.1699 16.8102C10.8964 16.0073 9.93834 15.9014 9.4861 15.9405C9.03385 15.9808 7.59613 16.5351 8.25312 18.4708C8.9108 20.4079 11.0475 21.9494 15.3189 21.9494C19.5903 21.9494 22.096 19.4191 22.0962 17.0086C22.0962 14.597 20.4543 13.056 16.0173 12.2254Z" fill="#555555"/>
</svg>
