<svg width="28" height="29" viewBox="0 0 28 29" fill="none" xmlns="http://www.w3.org/2000/svg">
<path d="M4.88638 0.77232L7.31814 0.167737C9.6079 -0.401543 12.0543 0.518467 13.0349 2.31759L14.5487 5.09499C15.3845 6.62849 14.944 8.43072 13.4532 9.57738L10.809 11.6112C10.7763 11.6363 10.7495 11.6662 10.7298 11.6993C10.4532 12.1656 10.8723 13.4114 12.1901 15.294C13.6754 17.4158 14.8233 18.2555 15.3536 18.1251L18.8247 17.2498C20.7736 16.7584 22.8855 17.3444 24.078 18.7075L26.2278 21.165C27.6235 22.7605 27.3725 24.9616 25.6406 26.3144L23.7917 27.7587C22.4857 28.7788 20.6569 29.2071 18.8958 28.9051C13.7431 28.0215 9.12655 24.599 5.00744 18.7144C0.884283 12.824 -0.399428 7.81097 1.25662 3.68633C1.81908 2.28544 3.17336 1.19821 4.88638 0.77232ZM5.52059 2.50774C4.49278 2.76328 3.6802 3.41562 3.34273 4.25615C1.9158 7.81012 3.07164 12.3238 6.91056 17.8081C10.7458 23.2872 14.9029 26.3691 19.3431 27.1305C20.3997 27.3117 21.497 27.0547 22.2806 26.4426L24.1296 24.9983C25.0621 24.2699 25.1973 23.0847 24.4458 22.2256L22.2959 19.7681C21.6538 19.0341 20.5166 18.7185 19.4672 18.9832L15.9887 19.8603C14.0634 20.3337 12.2539 19.0102 10.287 16.2003C8.62188 13.8214 8.04384 12.1032 8.75585 10.9028C8.89344 10.6708 9.08139 10.4616 9.31032 10.2855L11.9545 8.25177C12.7573 7.63433 12.9944 6.6639 12.5444 5.83817L11.0306 3.06077C10.5026 2.09201 9.1853 1.59662 7.95235 1.90316L5.52059 2.50774Z" fill="#555555"/>
</svg>
