<svg width="31" height="25" viewBox="0 0 31 25" fill="none" xmlns="http://www.w3.org/2000/svg">
<path d="M5.74994 15.0248C5.33177 14.868 4.91359 14.7112 4.49541 14.5021C2.66588 13.5612 1.62044 12.0453 1.20226 10.059C1.14999 9.74535 1.09772 9.43171 1.09772 9.11808C1.09772 8.75218 1.14999 8.75218 1.46362 8.90899C2.14316 9.22263 2.8227 9.43171 3.60678 9.53626C3.65905 9.53626 3.65905 9.53626 3.7636 9.53626C3.60678 9.37944 3.50224 9.2749 3.34542 9.17035C2.03862 8.02036 1.35908 6.55674 1.20226 4.88403C0.993172 3.57723 1.20226 2.42724 1.82953 1.38179C1.98634 1.06816 2.09089 1.06816 2.35225 1.32952C4.49541 3.78632 7.10902 5.45903 10.1931 6.55674C11.6567 7.07946 13.1726 7.3931 14.6885 7.65446C14.7408 7.65446 14.793 7.65446 14.8976 7.65446C14.8976 7.3931 14.8453 7.18401 14.8453 6.97492C14.5317 4.36131 16.0998 1.79997 18.3475 0.702256C19.393 0.179533 20.543 -0.0818275 21.7452 0.0227169C23.2089 0.127261 24.5157 0.702256 25.5611 1.7477C25.7179 1.90452 25.8747 1.95679 26.0838 1.90452C27.2861 1.59088 28.3838 1.17271 29.4815 0.597711C29.5338 0.493167 29.5861 0.493167 29.7429 0.440895C29.3247 1.85224 28.4361 2.89769 27.3906 3.78632V3.83859C28.3315 3.57723 29.2724 3.26359 30.2656 3.00223C30.2133 3.15905 30.2133 3.31587 30.1611 3.47268C29.4815 4.46585 28.6974 5.40675 27.652 6.08629C27.4429 6.24311 27.3906 6.39993 27.3906 6.60901C27.3906 9.37944 26.9725 12.0976 25.9793 14.7112C24.202 19.1543 21.0134 22.1339 16.5703 23.8588C14.8976 24.4861 13.1726 24.852 11.4476 24.9566C8.88628 25.1134 6.37721 24.852 3.97269 24.0679C2.66588 23.6498 1.41135 23.0748 0.209089 22.343C0.104544 22.2907 0.0522722 22.2384 0 22.1861C0 22.1339 0 22.1339 0 22.0816C0.156817 22.0816 0.313633 22.0816 0.47045 22.0816C2.29998 22.2907 4.02496 21.977 5.69767 21.4021C6.63857 21.0884 7.5272 20.7748 8.36355 20.1998C8.62492 20.043 8.78173 19.8339 9.09536 19.6248C8.93855 19.5725 8.834 19.5725 8.72946 19.5203C7.00448 19.2066 5.48858 18.5271 4.39087 17.1157C3.97269 16.593 3.71133 15.9657 3.39769 15.3907C3.24088 15.1294 3.29315 15.0771 3.60678 15.0771C4.33859 15.0771 5.0704 15.0771 5.80222 15.0771C5.74994 15.0248 5.74994 15.0248 5.74994 15.0248Z" fill="white"/>
</svg>
