<svg width="30" height="25" viewBox="0 0 30 25" fill="none" xmlns="http://www.w3.org/2000/svg">
<path d="M21.2002 12.2674L25.7979 11.6169C27.8719 11.3235 29.3204 9.39742 29.027 7.3235C28.9648 6.88389 28.8287 6.47284 28.634 6.10019L25.0883 6.60184L16.73 7.78436L16.7299 7.78443L11.7149 8.4939C11.0225 8.5918 10.3818 8.10991 10.2837 7.41748C10.1857 6.72515 10.6677 6.08437 11.3601 5.9864L16.3752 5.27681L19.9231 4.77485C20.0071 4.35761 20.0205 3.92479 19.9592 3.49091C19.6657 1.41694 17.7397 -0.0316139 15.6656 0.2617L10.6689 0.968759C4.44692 1.84897 0.101148 7.62705 0.981429 13.849L2.40506 23.9111L4.26438 24.0167C4.26473 24.0166 4.26512 24.0168 4.26554 24.0168L17.159 24.7482C17.1619 24.7483 17.1649 24.7485 17.1678 24.7487L17.1703 24.7487C17.1808 24.7494 17.191 24.7486 17.2016 24.7489C17.2322 24.7499 17.2626 24.751 17.2934 24.7496C17.3364 24.748 17.379 24.7443 17.4208 24.7383C17.4257 24.7376 17.4307 24.7364 17.4356 24.7355C20.4224 24.3039 22.5065 21.5271 22.0838 18.5373L21.2002 12.2674Z" fill="white"/>
</svg>
