<svg width="128" height="80" viewBox="0 0 128 80" fill="none" xmlns="http://www.w3.org/2000/svg">
<path d="M41.6227 70.1166C41.2713 70.1166 40.9949 70.1166 40.7242 70.1166C36.56 70.1166 32.3959 70.0705 28.2317 70.1339C25.7148 70.1685 23.2901 69.725 21.0554 68.6767C14.1727 65.4456 10.3081 60.0547 9.88761 52.383C9.66299 48.2707 10.7688 44.4809 13.1763 41.1404C16.8682 36.0202 21.8962 33.342 28.2433 33.2556C31.0712 33.2153 33.9049 33.2729 36.7328 33.2383C38.8984 33.2095 40.6896 32.3398 41.4326 30.2376C42.2044 28.0605 42.6651 25.7797 43.2814 23.4528C42.8898 23.4528 42.6651 23.4528 42.4348 23.4528C37.6716 23.4528 32.9085 23.4298 28.1453 23.4644C26.7515 23.4759 25.352 23.5507 23.9754 23.7639C21.4988 24.144 19.1029 24.8582 16.8106 25.8834C12.2145 27.928 8.40165 30.9633 5.43549 35.0353C1.69755 40.1613 -0.0994314 45.9323 0.0042403 52.2563C0.0560762 55.6314 0.706904 58.9143 1.97976 62.0705C4.33541 67.9222 8.19431 72.5126 13.5622 75.8128C15.8833 77.2412 18.3369 78.3873 21.0208 78.946C22.7314 79.3031 24.4477 79.7926 26.1756 79.8445C31.0482 79.9885 35.9265 79.9424 40.8048 79.9712C41.0698 79.9712 41.3347 79.9712 41.6227 79.9712C41.6227 76.6479 41.6227 73.4341 41.6227 70.1166Z" fill="white"/>
<path d="M127.543 57.8143C127.359 58.9546 127.175 60.1008 126.991 61.2412C126.536 64.0576 125.418 66.6263 123.909 69.005C121.657 72.5644 118.68 75.3809 114.89 77.293C113.208 78.1454 111.469 78.802 109.62 79.234C107.673 79.689 105.726 79.977 103.739 79.977C84.6176 79.9885 65.4902 79.9827 46.3685 80C45.7062 80 45.5219 79.8214 45.5334 79.1591C45.568 76.4003 45.568 73.6415 45.5334 70.8826C45.5277 70.2721 45.6889 70.1109 46.2994 70.1109C65.352 70.1281 84.4103 70.1109 103.463 70.1512C105.888 70.1569 108.226 69.8171 110.322 68.6652C113.617 66.8567 115.99 64.167 117.061 60.4867C118.202 56.5702 117.723 52.8438 115.592 49.3592C113.87 46.5371 111.382 44.6479 108.272 43.6112C107.339 43.3002 106.337 43.1447 105.352 43.041C102.985 42.7934 101.148 41.5493 100.595 39.113C100.451 38.4622 100.422 37.7135 100.589 37.0742C101.764 32.6278 99.748 28.2448 95.2786 26.5688C92.4621 25.5148 89.6342 25.9467 87.2267 27.9338C86.0115 28.9359 84.8019 29.8344 83.1086 29.7941C80.753 29.7365 78.789 27.9798 78.3743 25.6472C77.1706 18.8337 73.4038 14.0014 67.0338 11.2196C64.1252 9.95248 61.0611 9.60691 57.9855 9.96976C53.6544 10.4766 49.8588 12.2966 46.8639 15.5392C45.8905 16.5932 45.113 17.82 44.2145 18.9431C44.0244 19.1793 43.6904 19.4442 43.4197 19.45C40.177 19.4845 36.9287 19.4672 33.686 19.4672C33.5996 19.4672 33.5075 19.4442 33.2886 19.4096C33.4845 18.8222 33.6342 18.2577 33.8531 17.7279C35.2526 14.2721 37.257 11.2023 39.8718 8.55292C42.8898 5.50036 46.4089 3.17351 50.4751 1.75666C52.7732 0.956083 55.1173 0.305256 57.5881 0.264939C58.0777 0.259179 58.5673 0.0921526 59.0568 0C59.748 0 60.4391 0 61.1302 0C61.758 0.0921526 62.3858 0.184305 63.0136 0.282217C64.3844 0.50108 65.7782 0.62779 67.1144 0.967603C69.424 1.55508 71.6241 2.41901 73.7264 3.58243C77.28 5.54644 80.3325 8.09215 82.6882 11.3866C84.0359 13.2642 85.1475 15.3089 86.357 17.2556C87.3937 17.0425 88.5917 16.8236 89.7782 16.5529C92.2951 15.9712 94.789 16.2995 97.2195 16.9215C100.312 17.7106 103.037 19.2657 105.3 21.5407C108.606 24.8524 110.443 28.838 110.691 33.5263C110.714 33.9294 110.789 34.1483 111.261 34.2865C113.421 34.9431 115.443 35.9395 117.297 37.2239C120.724 39.5968 123.385 42.6436 125.182 46.4219C126.011 48.1728 126.697 49.9755 126.991 51.905C127.169 53.0511 127.359 54.1915 127.543 55.3376C127.543 56.1555 127.543 56.9849 127.543 57.8143Z" fill="black"/>
<path d="M41.6226 70.1166C41.6226 73.4341 41.6226 76.6422 41.6226 79.9712C41.3347 79.9712 41.0697 79.9712 40.8048 79.9712C35.9265 79.9424 31.0481 79.9942 26.1756 79.8445C24.4477 79.7926 22.7314 79.3031 21.0208 78.946C18.3368 78.3873 15.8775 77.2412 13.5622 75.8128C8.19428 72.5068 4.33538 67.9222 1.97973 62.0705C0.712633 58.9201 0.0618054 55.6314 0.00996959 52.2563C-0.0879426 45.9323 1.70327 40.1613 5.44122 35.0353C8.40738 30.969 12.2202 27.928 16.8163 25.8834C19.1086 24.8639 21.5046 24.1497 23.9812 23.7639C25.3519 23.5507 26.7573 23.4759 28.1511 23.4644C32.9142 23.4298 37.6774 23.4528 42.4405 23.4528C42.6709 23.4528 42.8955 23.4528 43.2871 23.4528C42.6709 25.7797 42.2101 28.0605 41.4383 30.2376C40.6954 32.3398 38.9041 33.2095 36.7385 33.2383C33.9106 33.2729 31.0769 33.2153 28.249 33.2556C21.902 33.342 16.8739 36.0202 13.182 41.1404C10.7745 44.4809 9.66872 48.2707 9.89334 52.383C10.3138 60.0547 14.1784 65.4456 21.0611 68.6767C23.2958 69.725 25.7206 70.1742 28.2375 70.1339C32.4016 70.0763 36.5658 70.1166 40.7299 70.1166C41.0006 70.1166 41.2713 70.1166 41.6226 70.1166Z" fill="#F05A22"/>
</svg>
