<svg width="81" height="80" viewBox="0 0 81 80" fill="none" xmlns="http://www.w3.org/2000/svg">
<path d="M55.1561 49.4377C53.0088 49.5907 51.2555 50.8469 50.1303 52.9872C49.0071 55.1246 49.3382 57.3359 51.0324 59.0512C54.0659 62.1207 57.1094 65.1822 60.1979 68.1957C60.813 68.7958 61.5982 69.2949 62.3953 69.6199C64.1926 70.3551 65.8608 69.801 67.4091 68.8058C69.0894 67.7246 70.3856 66.2524 71.5328 64.6401C71.9118 64.108 71.8828 63.851 71.4118 63.3789C70.2226 62.1877 69.0324 60.9985 67.8412 59.8083C64.9297 56.8989 62.0162 53.9914 59.1077 51.0799C58.1026 50.0728 56.9304 49.4487 55.1561 49.4377ZM24.7912 30.5576C25.8954 30.5446 27.0715 30.0445 28.1077 29.2014C30.5891 27.183 31.6753 23.4534 28.6208 20.561C25.7063 17.8005 22.9469 14.877 20.0774 12.0686C19.4343 11.4395 18.6742 10.8644 17.864 10.4823C16.0488 9.62619 14.3175 10.1123 12.7012 11.1234C10.9179 12.2396 9.5657 13.7939 8.36951 15.4961C8.12547 15.8432 8.15647 16.1843 8.45952 16.4893C8.88159 16.9154 9.30666 17.3384 9.73073 17.7625C13.4423 21.4741 17.1549 25.1837 20.8645 28.8973C21.8817 29.9165 23.0619 30.5596 24.7912 30.5576ZM30.5601 55.0986C30.3981 52.9682 29.1059 51.1869 26.8915 50.0728C24.7892 49.0146 22.5878 49.3927 20.9175 51.0529C17.9041 54.0484 14.8916 57.0449 11.9181 60.0804C11.335 60.6755 10.8259 61.3986 10.4728 62.1517C9.68272 63.834 10.0568 65.4723 10.9529 67.0135C12.0741 68.9428 13.7104 70.3751 15.5117 71.6383C15.8867 71.9013 16.2268 71.8063 16.5388 71.4932C20.7195 67.3086 24.9072 63.1309 29.0819 58.9402C30.024 57.9961 30.5491 56.8509 30.5601 55.0986ZM49.4372 24.8447C49.5692 26.893 50.7634 28.6163 52.7987 29.7665C54.9881 31.0037 57.2945 30.7016 59.0787 28.9373C62.1242 25.9268 65.1537 22.9003 68.1512 19.8429C68.7103 19.2718 69.1924 18.5696 69.5254 17.8425C70.3536 16.0362 69.8855 14.325 68.8893 12.7227C67.7782 10.9364 66.2239 9.58419 64.5236 8.38499C64.1126 8.09494 63.7585 8.19596 63.4155 8.54002C59.2498 12.7157 55.0741 16.8814 50.9124 21.0611C49.9713 22.0052 49.4462 23.1504 49.4372 24.8447ZM10.1928 45.666C10.1928 45.664 10.1928 45.663 10.1928 45.661C13.1253 45.661 16.0578 45.6921 18.9902 45.65C21.0886 45.62 22.5828 44.5819 23.458 42.6756C23.957 41.5884 24.0591 40.4382 23.948 39.256C23.676 36.3515 21.5476 34.3492 18.6412 34.3362C14.3595 34.3182 10.0768 34.3162 5.79509 34.3402C2.91762 34.3562 1.03832 35.8325 0.352204 38.6149C-0.170881 40.7352 -0.046861 42.8756 0.306196 45.0109C0.39221 45.53 0.713262 45.671 1.19534 45.669C4.19483 45.661 7.19432 45.666 10.1928 45.666ZM34.3317 10.1703C34.3317 13.0527 34.3217 15.9352 34.3347 18.8177C34.3457 21.1531 35.6519 22.9724 37.8923 23.6235C38.7224 23.8645 39.6376 23.9765 40.4977 23.9185C43.4212 23.7205 45.7166 21.6952 45.6786 18.5066C45.6286 14.292 45.6756 10.0763 45.6626 5.86058C45.6536 2.93511 44.1803 1.0348 41.3519 0.344685C39.2305 -0.173399 37.0902 -0.0423782 34.9558 0.310679C34.4627 0.392693 34.3257 0.712745 34.3267 1.17282C34.3347 4.17231 34.3307 7.17079 34.3317 10.1703ZM69.8195 34.3312C69.8195 34.3322 69.8195 34.3322 69.8195 34.3332C66.971 34.3332 64.1226 34.3332 61.2751 34.3332C61.1751 34.3332 61.0751 34.3352 60.9751 34.3402C59.4028 34.4082 58.0976 35.0213 57.1664 36.3055C56.0983 37.7778 55.8542 39.442 56.1583 41.2033C56.6293 43.9318 58.6547 45.658 61.4061 45.664C65.6368 45.673 69.8675 45.677 74.0982 45.663C77.0917 45.653 78.95 44.2058 79.6631 41.2933C80.1782 39.189 80.0462 37.0657 79.6821 34.9493C79.5961 34.4512 79.269 34.3272 78.814 34.3282C75.8155 34.3342 72.818 34.3312 69.8195 34.3312ZM45.6666 69.803C45.6666 66.9545 45.6736 64.106 45.6646 61.2576C45.6566 58.8152 44.3354 57.0049 41.984 56.3438C41.2138 56.1267 40.3707 56.0277 39.5726 56.0767C36.6281 56.2578 34.2627 58.2731 34.3157 61.5716C34.3827 65.7513 34.3237 69.933 34.3347 74.1147C34.3427 77.0682 35.811 78.9565 38.6724 79.6576C40.7778 80.1737 42.9001 80.0396 45.0175 79.6886C45.5365 79.6026 45.6736 79.2785 45.6726 78.7974C45.6616 75.7999 45.6666 72.8015 45.6666 69.803ZM39.9846 48.3075C44.5434 48.3235 48.253 44.6289 48.266 40.0611C48.279 35.4864 44.6014 31.7708 40.0457 31.7548C35.4739 31.7388 31.7593 35.4144 31.7383 39.9751C31.7163 44.5739 35.3949 48.2915 39.9846 48.3075Z" fill="white"/>
<path d="M55.1559 49.4375C56.9302 49.4485 58.1024 50.0726 59.1075 51.0788C62.017 53.9902 64.9295 56.8977 67.841 59.8072C69.0312 60.9964 70.2223 62.1856 71.4115 63.3778C71.8826 63.8498 71.9116 64.1069 71.5326 64.639C70.3844 66.2512 69.0892 67.7245 67.4089 68.8046C65.8616 69.8008 64.1924 70.3539 62.3951 69.6188C61.5979 69.2927 60.8128 68.7946 60.1977 68.1946C57.1092 65.1811 54.0657 62.1196 51.0322 59.0501C49.3379 57.3358 49.0069 55.1234 50.1301 52.9861C51.2553 50.8467 53.0085 49.5905 55.1559 49.4375Z" fill="#F05A22"/>
<path d="M24.791 30.5574C23.0617 30.5604 21.8816 29.9163 20.8644 28.8981C17.1548 25.1845 13.4422 21.4739 9.73058 17.7633C9.30651 17.3393 8.88145 16.9152 8.45938 16.4901C8.15733 16.1851 8.12532 15.844 8.36936 15.497C9.56556 13.7947 10.9178 12.2404 12.7011 11.1243C14.3173 10.1121 16.0486 9.62701 17.8639 10.4832C18.673 10.8652 19.4342 11.4393 20.0773 12.0694C22.9467 14.8779 25.7062 17.8023 28.6207 20.5618C31.6751 23.4543 30.589 27.1839 28.1076 29.2022C27.0714 30.0443 25.8952 30.5434 24.791 30.5574Z" fill="black"/>
<path d="M30.5599 55.0985C30.5489 56.8508 30.0228 57.996 29.0827 58.9401C24.908 63.1308 20.7203 67.3085 16.5396 71.4932C16.2276 71.8062 15.8875 71.9012 15.5125 71.6382C13.7112 70.375 12.0749 68.9418 10.9537 67.0134C10.0576 65.4722 9.68352 63.8339 10.4736 62.1516C10.8277 61.3985 11.3368 60.6754 11.9189 60.0803C14.8914 57.0448 17.9039 54.0483 20.9183 51.0528C22.5886 49.3926 24.789 49.0155 26.8923 50.0727C29.1067 51.1859 30.3989 52.9682 30.5599 55.0985Z" fill="black"/>
<path d="M49.437 24.8443C49.446 23.1511 49.9711 22.0049 50.9113 21.0607C55.0729 16.881 59.2486 12.7154 63.4143 8.53969C63.7583 8.19563 64.1124 8.09462 64.5225 8.38466C66.2227 9.58386 67.778 10.9361 68.8882 12.7224C69.8843 14.3246 70.3524 16.0359 69.5243 17.8422C69.1912 18.5683 68.7091 19.2714 68.1501 19.8425C65.1526 22.9 62.1231 25.9265 59.0776 28.937C57.2933 30.7013 54.9869 31.0023 52.7976 29.7661C50.7642 28.616 49.569 26.8927 49.437 24.8443Z" fill="black"/>
<path d="M10.1928 45.6656C7.19332 45.6656 4.19483 45.6606 1.19534 45.6706C0.713262 45.6716 0.39221 45.5306 0.306196 45.0125C-0.046861 42.8771 -0.170881 40.7368 0.352204 38.6164C1.03932 35.834 2.91862 34.3578 5.79509 34.3418C10.0768 34.3168 14.3595 34.3187 18.6412 34.3378C21.5476 34.3508 23.676 36.3521 23.948 39.2576C24.0591 40.4397 23.957 41.5899 23.458 42.6771C22.5828 44.5834 21.0886 45.6216 18.9902 45.6516C16.0588 45.6936 13.1253 45.6626 10.1928 45.6626C10.1928 45.6626 10.1928 45.6636 10.1928 45.6656Z" fill="black"/>
<path d="M34.3307 10.1703C34.3307 7.17079 34.3347 4.17231 34.3267 1.17282C34.3257 0.712745 34.4627 0.391692 34.9558 0.310679C37.0901 -0.0423782 39.2305 -0.173399 41.3518 0.344685C44.1803 1.0348 45.6545 2.93611 45.6625 5.86058C45.6745 10.0763 45.6275 14.292 45.6785 18.5066C45.7165 21.6942 43.4211 23.7205 40.4977 23.9185C39.6365 23.9765 38.7214 23.8645 37.8922 23.6235C35.6519 22.9724 34.3457 21.1531 34.3347 18.8177C34.3207 15.9352 34.3317 13.0527 34.3307 10.1703Z" fill="black"/>
<path d="M69.8195 34.3312C72.818 34.3312 75.8155 34.3342 78.8139 34.3272C79.269 34.3262 79.5961 34.4502 79.6821 34.9483C80.0461 37.0646 80.1792 39.1879 79.6631 41.2923C78.95 44.2038 77.0907 45.652 74.0982 45.662C69.8675 45.676 65.6368 45.673 61.4061 45.663C58.6547 45.657 56.6293 43.9307 56.1583 41.2023C55.8542 39.441 56.0983 37.7757 57.1664 36.3045C58.0976 35.0213 59.4028 34.4072 60.975 34.3392C61.0751 34.3352 61.1751 34.3322 61.2751 34.3322C64.1236 34.3322 66.972 34.3322 69.8195 34.3322V34.3312Z" fill="#F05A22"/>
<path d="M45.6667 69.803C45.6667 72.8015 45.6617 75.7999 45.6717 78.7984C45.6737 79.2795 45.5367 79.6036 45.0166 79.6896C42.8992 80.0406 40.7769 80.1737 38.6715 79.6586C35.8101 78.9575 34.3418 77.0691 34.3338 74.1157C34.3228 69.935 34.3818 65.7523 34.3148 61.5726C34.2618 58.2741 36.6282 56.2588 39.5717 56.0777C40.3688 56.0287 41.213 56.1277 41.9831 56.3448C44.3345 57.0059 45.6557 58.8162 45.6637 61.2586C45.6737 64.106 45.6667 66.9545 45.6667 69.803Z" fill="black"/>
<path d="M39.9847 48.3076C35.395 48.2916 31.7164 44.575 31.7384 39.9753C31.7594 35.4145 35.474 31.7389 40.0457 31.7549C44.6015 31.7709 48.2781 35.4865 48.2661 40.0613C48.2531 44.629 44.5435 48.3236 39.9847 48.3076Z" fill="black"/>
</svg>
