<svg width="51" height="80" viewBox="0 0 51 80" fill="none" xmlns="http://www.w3.org/2000/svg">
<path d="M36.2791 80H13.9535C10.2528 80 6.70367 78.5299 4.08688 75.9133C1.4701 73.2964 0 69.7474 0 66.0465V13.9535C0 10.2528 1.4701 6.70367 4.08688 4.08688C6.70367 1.4701 10.2528 0 13.9535 0H36.2791C39.9799 0 43.5289 1.4701 46.1459 4.08688C48.7624 6.70367 50.2326 10.2528 50.2326 13.9535V66.0465C50.2326 69.7474 48.7624 73.2964 46.1459 75.9133C43.5289 78.5299 39.9799 80 36.2791 80ZM13.9535 5.5814C11.7331 5.5814 9.60361 6.46344 8.03353 8.03353C6.46344 9.60361 5.5814 11.7331 5.5814 13.9535V66.0465C5.5814 68.2668 6.46344 70.3963 8.03353 71.9665C9.60361 73.5364 11.7331 74.4186 13.9535 74.4186H36.2791C38.4994 74.4186 40.6288 73.5364 42.1991 71.9665C43.7689 70.3963 44.6512 68.2668 44.6512 66.0465V13.9535C44.6512 11.7331 43.7689 9.60361 42.1991 8.03353C40.6288 6.46344 38.4994 5.5814 36.2791 5.5814H13.9535Z" fill="#222222"/>
<circle cx="24" cy="65.674" r="3.34884" fill="#F05A22"/>
</svg>
