<svg width="273" height="300" viewBox="0 0 273 300" fill="none" xmlns="http://www.w3.org/2000/svg">
<path d="M257.322 300C246.022 288.627 234.285 276.816 222.474 265.079C210.81 253.414 199.145 241.677 187.553 230.012C183.252 232.71 179.388 235.407 175.233 237.667C129.813 262.236 73.1671 239.708 57.0553 190.644C56.1075 187.874 54.9411 186.926 52.0249 186.999C36.3506 187.145 20.6762 187.072 5.00189 187.072C3.54382 187.072 2.08574 187.072 0.919275 187.072C0.554755 186.634 0.26314 186.416 0.26314 186.197C0.336043 174.022 -0.611708 161.774 0.700563 149.818C3.3251 126.27 23.2279 110.887 48.161 112.418C54.7224 112.856 61.1379 114.97 67.3347 116.209C73.3858 110.45 79.4368 104.18 86.0711 98.5664C89.133 96.0147 90.8827 93.536 91.9034 89.5992C96.6421 70.9358 109.327 60.7292 127.918 57.4485C146.727 54.095 165.828 62.1873 174.868 77.6429C177.42 81.9443 178.44 87.1204 180.409 91.7863C181.211 93.6089 182.304 95.5044 183.762 96.8896C189.74 102.868 196.01 108.554 201.915 114.678C203.665 116.501 204.686 117.011 207.019 115.99C226.047 108.263 247.116 112.345 260.239 126.124C265.706 131.811 269.716 138.591 270.372 146.318C271.539 159.66 271.612 173.147 272.122 187.072C269.789 187.072 268.404 187.072 266.946 187.072C251.053 187.072 235.087 187.072 219.194 187.072C217.59 187.072 215.84 186.561 215.111 188.967C212.195 198.736 207.529 207.558 201.332 215.577C224.953 239.125 248.501 262.6 271.976 286.075C266.727 291.033 262.207 295.334 257.322 300ZM135.937 233.074C173.702 232.928 204.248 202.236 204.248 164.472C204.248 126.853 173.337 96.2334 135.573 96.3063C98.1731 96.3792 67.3347 126.999 67.3347 164.107C67.2618 202.382 97.9544 233.22 135.937 233.074Z" fill="white" fill-opacity="0.1"/>
<path d="M110.348 25.298C110.348 11.2276 121.794 -0.0725531 135.937 0.000350783C149.789 0.0732547 161.235 11.4463 161.162 25.298C161.162 39.3685 149.643 50.8873 135.719 50.8144C121.648 50.7415 110.348 39.3685 110.348 25.298Z" fill="white" fill-opacity="0.1"/>
<path d="M226.047 55.4076C239.898 55.3347 251.417 66.6348 251.563 80.4865C251.709 94.557 240.409 106.076 226.338 106.149C212.195 106.222 200.822 95.0673 200.676 80.9239C200.603 66.8535 211.903 55.4076 226.047 55.4076Z" fill="white" fill-opacity="0.1"/>
<path d="M45.1718 106.149C31.0285 105.93 19.8742 94.4839 20.02 80.4135C20.1658 66.4159 31.7575 55.1887 45.9009 55.4074C59.7526 55.5532 71.0527 67.0721 70.9069 80.9238C70.7611 94.9943 59.1694 106.367 45.1718 106.149Z" fill="white" fill-opacity="0.1"/>
<path d="M102.037 214.119C102.037 205.006 101.381 196.258 102.183 187.582C104.078 165.565 124.127 156.161 141.113 158.712C159.194 161.483 169.546 173.731 169.765 192.029C169.838 199.32 169.765 206.537 169.765 214.119C147.092 214.119 124.637 214.119 102.037 214.119Z" fill="white" fill-opacity="0.1"/>
<path d="M135.791 115.845C146.29 115.845 154.819 124.302 154.819 134.8C154.819 145.371 146.144 153.973 135.573 153.901C125.147 153.828 116.764 145.225 116.836 134.727C116.836 124.156 125.22 115.845 135.791 115.845Z" fill="white" fill-opacity="0.1"/>
</svg>
