<svg width="267" height="301" viewBox="0 0 267 301" fill="none" xmlns="http://www.w3.org/2000/svg">
<path d="M120.7 138.2C121 141.6 121.3 144.9 121.6 148.2C122.5 156.1 121.6 163.8 119.7 171.5C115.9 186.6 112.1 201.7 108.8 216.9C107.2 224.1 101.4 226.6 95.1997 225.6C92.2997 225.1 89.7997 223.8 87.7997 221.6C85.5997 219.1 84.5997 216.3 85.3997 212.9C89.1997 197.5 92.7997 182 96.5997 166.7C98.1997 160.4 98.1997 154 97.2997 147.7C95.8997 138.2 94.7997 128.8 94.2997 119.2C93.7997 111 94.6997 102.9 95.8997 94.7995C96.5997 90.0995 97.1997 85.3995 97.9997 80.1995C97.1997 80.7995 96.7997 81.0995 96.4997 81.4995C95.3997 82.5995 94.3997 83.7995 93.3997 84.8995C91.2997 87.1995 89.7997 89.8995 88.6997 92.7995C86.0997 100.1 83.4997 107.5 81.0997 114.8C79.7997 118.7 76.7997 120.9 72.8997 121.2C68.7997 121.5 64.6997 119.1 63.0997 115.5C62.1997 113.6 61.9997 111.6 62.6997 109.6C65.8997 100.4 68.9997 91.0995 72.2997 81.8995C73.5997 78.2995 75.7997 75.1996 78.2997 72.3995C79.4997 71.0996 80.6997 69.7995 81.8997 68.4995C89.0997 60.8995 96.1997 53.3995 103.4 45.8995C106.7 42.3995 110.6 40.8995 115.3 42.1995C119.1 43.1995 122.8 44.2995 126.6 45.4995C130 46.5995 132.2 48.8995 133.6 52.0995C135.3 56.1995 136.5 60.4995 136.9 64.9995C137.1 66.8995 137.6 68.7995 137.8 70.6995C138.1 73.7995 138.3 76.7995 138.6 79.8995C138.6 80.2995 138.7 80.7995 138.8 81.2995C143.1 81.7995 147.3 82.2995 151.5 82.7995C156.4 83.3995 161.3 83.8995 166.1 84.4995C169.6 84.9995 172.3 87.7995 173.2 91.7995C174.3 97.0995 170.9 102.5 165.8 103.3C165.1 103.4 164.3 103.4 163.5 103.3C155.8 102.4 148 101.6 140.3 100.7C140 100.7 139.7 100.7 139.1 100.6C138.9 106.8 138.7 112.9 138.5 119.3C139.2 119.6 139.9 120 140.7 120.3C149 123.8 157.3 127.4 165.6 130.9C169.4 132.5 171.3 135.6 171.5 139.5C171.7 142.3 171.6 145.1 171.5 147.8C170.9 157.7 170.1 167.6 169.4 177.5C169 183.5 168.4 189.5 168 195.5C167.8 198.8 166.2 201.2 163.5 202.9C158.9 205.8 152.4 205.4 148.1 202C145.4 199.8 144.1 197 144.4 193.5C145.2 183.7 145.9 173.8 146.7 164C146.9 161 147.2 158 147.5 155C147.6 153.9 147.6 152.8 147.6 151.8C147.5 150.1 146.6 148.7 145 148C137.2 144.7 129.4 141.4 121.6 138.2C121.3 138.2 121.1 138.2 120.7 138.2Z" fill="white" fill-opacity="0.2"/>
<path d="M33.8999 125.3C34.4999 126.3 34.8999 126.9 35.2999 127.5C39.4999 134.7 43.7999 142 47.9999 149.2C48.7999 150.5 49.5999 151.9 50.4999 153.1C51.5999 154.4 51.9999 155.7 51.0999 157.3C50.4999 158.3 50.9999 159.1 51.8999 159.6C52.5999 160 53.2999 160.3 53.9999 160.6C56.2999 161.5 56.7999 161.2 57.4999 158.9C57.5999 158.5 57.7999 158 57.7999 158C63.5999 156.2 69.0999 154.6 74.5999 152.8C79.9999 151.1 85.3999 149.2 91.0999 147.3C90.8999 148 90.8999 148.6 90.6999 149.1C88.7999 153.9 86.8999 158.7 85.0999 163.5C83.2999 168.2 81.6999 172.9 79.8999 177.6C79.7999 177.9 79.6999 178.2 79.5999 178.5C78.3999 181.4 76.4999 182.4 73.4999 181.3C64.5999 177.9 55.6999 174.4 46.8999 171C44.6999 170.1 42.3999 169.4 40.1999 168.6C34.7999 166.6 29.3999 164.6 23.9999 162.5C22.0999 161.7 21.0999 159.2 21.7999 157.3C25.5999 147.4 29.2999 137.4 33.0999 127.5C33.2999 126.7 33.4999 126.2 33.8999 125.3Z" fill="white" fill-opacity="0.2"/>
<path d="M124.7 0C136.1 0 145.2 9.2 145.2 20.6C145.2 31.9 135.8 41.2 124.5 41C113.3 40.8 104.2 32.1 104.1 20.4C104 9.2 113.3 0 124.7 0Z" fill="white" fill-opacity="0.2"/>
<path d="M92.1999 145.3C81.3999 149.1 70.4999 153.1 58.9999 156C58.9999 155.4 58.9999 155.1 59.0999 154.8C59.3999 153.9 60.0999 152.7 58.8999 152.1C57.4999 151.4 55.8999 151 54.3999 150.6C54.1999 150.5 53.6999 151.1 53.3999 151.5C53.0999 151.9 52.8999 152.4 52.4999 153.2C51.7999 152.2 51.0999 151.5 50.6999 150.7C45.5999 142 40.4999 133.3 35.3999 124.6C34.8999 123.8 34.6999 123.1 35.3999 122.3C36.3999 121.1 37.5999 120.4 39.1999 120.6C39.7999 120.7 40.3999 121 40.8999 121.2C56.9999 127.3 73.0999 133.4 89.1999 139.6C92.1999 140.5 92.8999 141.9 92.1999 145.3Z" fill="white" fill-opacity="0.2"/>
<path d="M0.999969 284.6C1.19997 276.1 8.29997 269.6 16.6 269.8C24.7 270 31.4 277.1 31.2 285.3C31 293.6 24 300.2 15.9 300C7.49997 299.8 0.799969 292.9 0.999969 284.6Z" fill="white" fill-opacity="0.2"/>
<path d="M63.6001 252.5C71.9001 252.7 78.5001 259.6 78.4001 267.7C78.2001 276.2 71.3001 282.8 62.8001 282.6C54.6001 282.4 47.9001 275.4 48.1001 267.2C48.3001 258.9 55.3001 252.2 63.6001 252.5Z" fill="white" fill-opacity="0.2"/>
<path d="M158.5 217.3C166.9 217.3 173.7 224 173.7 232.3C173.7 238.8 168.9 247.7 157.6 247.3C150.9 247.1 143.5 241.4 143.5 232.2C143.4 224 150.2 217.4 158.5 217.3Z" fill="white" fill-opacity="0.2"/>
<path d="M110.7 265C102.1 265.4 95.1998 258 95.1998 250.3C95.0998 242 101.9 235.1 110.2 235C118.6 235 125.4 241.7 125.4 250.1C125.4 258.4 118 265.6 110.7 265Z" fill="white" fill-opacity="0.2"/>
<path d="M236.7 198.1C236.5 190.8 242.3 183.1 251.7 182.9C259.9 182.8 266.7 189.6 266.8 197.8C266.9 204.8 261.6 213 251.6 213.1C243.4 213.2 236.7 206.3 236.7 198.1ZM251.7 209.2C257.9 209.2 262.9 204.3 263 198.1C263.1 191.9 258 186.8 251.8 186.8C245.7 186.8 240.6 191.8 240.5 197.9C240.4 204.1 245.4 209.2 251.7 209.2Z" fill="white" fill-opacity="0.2"/>
<path d="M219.7 215.4C219.7 223.8 213 230.5 204.6 230.4C196.2 230.4 189.5 223.7 189.6 215.3C189.6 207 196.3 200.4 204.6 200.3C213 200.3 219.7 207 219.7 215.4ZM215.9 215.4C215.8 209.6 211.6 204.2 204.6 204.1C198.5 204 193.4 209.2 193.4 215.3C193.4 221.4 198.4 226.5 204.5 226.6C210.6 226.8 215.8 221.6 215.9 215.4Z" fill="white" fill-opacity="0.2"/>
<path d="M60.8001 121.6C68.2001 121.7 73.2001 124.5 76.9001 129.9C77.9001 131.4 77.9001 132.5 77.0001 133.2C76.1001 133.8 75.2001 133.4 74.1001 131.8C70.1001 126.1 64.2001 123.8 57.4001 125.5C55.6001 125.9 54.8001 125.7 54.4001 124.8C54.0001 123.7 54.7001 122.8 56.5001 122.4C58.2001 121.9 59.9001 121.7 60.8001 121.6Z" fill="white" fill-opacity="0.2"/>
</svg>
