<svg width="197" height="60" viewBox="0 0 197 60" fill="none" xmlns="http://www.w3.org/2000/svg">
<path d="M30 0H190.2C191.791 0 193.317 0.632141 194.443 1.75736C195.568 2.88258 196.2 4.4087 196.2 6V30C196.2 37.9565 193.039 45.5871 187.413 51.2132C181.787 56.8393 174.156 60 166.2 60H30C22.0435 60 14.4129 56.8393 8.7868 51.2132C3.16071 45.5871 0 37.9565 0 30H0C0 22.0435 3.16071 14.4129 8.7868 8.7868C14.4129 3.16071 22.0435 0 30 0V0Z" fill="#B17C57"/>
<path d="M66.0735 20.3429L69.7665 24.378H68.4327L65.0931 20.6736V24.378H64.0557V16.3979H65.0931V20.1251L68.4447 16.3979H69.7647L66.0735 20.3429Z" fill="white"/>
<path d="M75.0223 22.0408H70.9525C70.9391 22.2593 70.973 22.4782 71.052 22.6823C71.131 22.8865 71.2531 23.0713 71.4101 23.2239C71.567 23.3765 71.7551 23.4934 71.9614 23.5667C72.1677 23.6399 72.3874 23.6677 72.6055 23.6482C72.889 23.6785 73.1749 23.6202 73.4239 23.4814C73.673 23.3426 73.8729 23.1301 73.9963 22.873H74.9881C74.8051 23.842 73.8367 24.5146 72.6055 24.5146C70.9855 24.5146 69.9727 23.443 69.9727 21.745C69.9727 20.0806 70.9987 18.985 72.5599 18.985C72.8897 18.9682 73.2194 19.0205 73.5278 19.1387C73.8362 19.2569 74.1164 19.4384 74.3505 19.6714C74.5845 19.9044 74.7673 20.1838 74.8869 20.4916C75.0065 20.7994 75.0604 21.1289 75.045 21.4588C75.048 21.6531 75.0404 21.8474 75.0223 22.0408ZM74.0755 21.2776C74.0912 21.0746 74.0622 20.8707 73.9906 20.6801C73.919 20.4895 73.8064 20.3169 73.6609 20.1745C73.5154 20.0322 73.3404 19.9234 73.1483 19.856C72.9562 19.7885 72.7516 19.764 72.5491 19.7842C72.3443 19.7696 72.1388 19.7974 71.9453 19.8659C71.7519 19.9344 71.5746 20.0422 71.4247 20.1824C71.2748 20.3226 71.1555 20.4922 71.0743 20.6807C70.993 20.8692 70.9515 21.0724 70.9525 21.2776H74.0755Z" fill="white"/>
<path d="M76.334 19.1233H77.3252V20.0923C77.4803 19.7416 77.7398 19.4473 78.0682 19.2494C78.3966 19.0516 78.7781 18.9597 79.1606 18.9865C80.4494 18.9865 81.11 19.7389 81.11 21.1411V24.3811H80.1296V21.5743C80.1296 20.4001 79.742 19.8415 78.8096 19.8415C77.8292 19.8415 77.3276 20.5369 77.3276 21.5971V24.3781H76.3364L76.334 19.1233Z" fill="white"/>
<path d="M85.4759 23.4888V24.3666C85.1829 24.4227 84.885 24.4495 84.5867 24.4464C83.9717 24.4464 82.9793 24.3324 82.9793 22.6338V19.9554H82.0337V19.1232H82.9799V17.46H83.9723V19.1238H85.2923V19.956H83.9723V22.416C83.9723 23.4192 84.3137 23.556 84.8153 23.556C85.037 23.5529 85.2581 23.5304 85.4759 23.4888Z" fill="white"/>
<path d="M86.3538 17.4251C86.3509 17.3177 86.3695 17.2108 86.4086 17.1107C86.4476 17.0107 86.5064 16.9194 86.5813 16.8424C86.6562 16.7654 86.7458 16.7042 86.8448 16.6624C86.9437 16.6207 87.0501 16.5991 87.1575 16.5991C87.2649 16.5991 87.3713 16.6207 87.4703 16.6624C87.5692 16.7042 87.6588 16.7654 87.7337 16.8424C87.8086 16.9194 87.8674 17.0107 87.9065 17.1107C87.9455 17.2108 87.9641 17.3177 87.9612 17.4251C87.9555 17.6344 87.8683 17.8333 87.7182 17.9793C87.5681 18.1254 87.3669 18.2071 87.1575 18.2071C86.9481 18.2071 86.7469 18.1254 86.5968 17.9793C86.4467 17.8333 86.3595 17.6344 86.3538 17.4251ZM86.6736 19.1231H87.6534V24.3779H86.6736V19.1231Z" fill="white"/>
<path d="M88.9414 21.7566C88.9414 20.1264 89.9332 18.9966 91.5514 18.9966C92.965 18.9966 93.8764 19.7718 94.0018 20.946H93.0106C92.9504 20.6134 92.7635 20.3172 92.4894 20.1194C92.2153 19.9217 91.8752 19.838 91.5406 19.8858C90.5374 19.8858 89.9206 20.5812 89.9206 21.7554C89.9206 22.9176 90.5362 23.6244 91.5406 23.6244C91.8701 23.6723 92.2054 23.593 92.4785 23.4025C92.7515 23.212 92.9418 22.9247 93.0106 22.599H94.0018C93.8764 23.7498 92.965 24.5136 91.5514 24.5136C89.9332 24.5148 88.9414 23.3862 88.9414 21.7566Z" fill="white"/>
<path d="M94.9268 21.7565C94.9268 21.0309 95.215 20.335 95.7281 19.8219C96.2412 19.3088 96.9371 19.0205 97.6628 19.0205C98.3884 19.0205 99.0843 19.3088 99.5974 19.8219C100.111 20.335 100.399 21.0309 100.399 21.7565C100.399 22.4821 100.111 23.1781 99.5974 23.6912C99.0843 24.2043 98.3884 24.4925 97.6628 24.4925C96.9371 24.4925 96.2412 24.2043 95.7281 23.6912C95.215 23.1781 94.9268 22.4821 94.9268 21.7565ZM99.4064 21.7565C99.4242 21.5159 99.3922 21.2741 99.3124 21.0464C99.2325 20.8186 99.1066 20.6098 98.9423 20.433C98.7781 20.2562 98.5792 20.1151 98.358 20.0187C98.1368 19.9222 97.8981 19.8724 97.6568 19.8724C97.4154 19.8724 97.1767 19.9222 96.9555 20.0187C96.7343 20.1151 96.5354 20.2562 96.3712 20.433C96.207 20.6098 96.081 20.8186 96.0012 21.0464C95.9213 21.2741 95.8893 21.5159 95.9072 21.7565C95.8918 21.9957 95.9257 22.2355 96.0066 22.4611C96.0876 22.6867 96.214 22.8933 96.378 23.0681C96.5419 23.243 96.74 23.3823 96.96 23.4776C97.1799 23.5729 97.4171 23.622 97.6568 23.622C97.8965 23.622 98.1336 23.5729 98.3536 23.4776C98.5735 23.3823 98.7716 23.243 98.9355 23.0681C99.0995 22.8933 99.2259 22.6867 99.3069 22.4611C99.3879 22.2355 99.4217 21.9957 99.4064 21.7565Z" fill="white"/>
<path d="M106.555 20.3888L103.933 16.3994H105.107L107.147 19.5338L109.187 16.3994H110.362L107.728 20.3888L110.362 24.3782H109.187L107.147 21.2552L105.107 24.3782H103.933L106.555 20.3888Z" fill="white"/>
<path d="M116.905 21.7566C116.93 22.1117 116.88 22.468 116.76 22.8031C116.641 23.1383 116.453 23.445 116.209 23.7042C115.965 23.9633 115.67 24.1692 115.343 24.309C115.015 24.4489 114.663 24.5195 114.307 24.5166C113.927 24.5268 113.551 24.4335 113.22 24.2468C112.888 24.0601 112.614 23.7869 112.426 23.4564V26.8074H111.445V19.1274H112.426V20.058C112.62 19.7198 112.904 19.4412 113.245 19.2523C113.587 19.0635 113.973 18.9715 114.363 18.9864C115.868 18.9864 116.905 20.115 116.905 21.7566ZM115.913 21.7566C115.928 21.5155 115.893 21.274 115.811 21.0468C115.729 20.8197 115.602 20.6117 115.436 20.4358C115.271 20.2599 115.071 20.1197 114.849 20.0239C114.627 19.928 114.388 19.8786 114.147 19.8786C113.905 19.8786 113.666 19.928 113.445 20.0239C113.223 20.1197 113.023 20.2599 112.858 20.4358C112.692 20.6117 112.564 20.8197 112.482 21.0468C112.4 21.274 112.365 21.5155 112.38 21.7566C112.367 21.9969 112.403 22.2373 112.485 22.4632C112.568 22.6891 112.696 22.8957 112.862 23.0705C113.027 23.2452 113.226 23.3844 113.447 23.4795C113.668 23.5747 113.906 23.6237 114.147 23.6237C114.387 23.6237 114.625 23.5747 114.846 23.4795C115.067 23.3844 115.267 23.2452 115.432 23.0705C115.597 22.8957 115.725 22.6891 115.808 22.4632C115.891 22.2373 115.927 21.9969 115.913 21.7566Z" fill="white"/>
<path d="M122.81 22.0408H118.74C118.727 22.2593 118.761 22.4782 118.84 22.6823C118.919 22.8865 119.041 23.0713 119.198 23.2239C119.355 23.3765 119.543 23.4934 119.749 23.5667C119.955 23.6399 120.175 23.6677 120.393 23.6482C120.677 23.6785 120.962 23.6202 121.212 23.4814C121.461 23.3426 121.661 23.1301 121.784 22.873H122.776C122.593 23.842 121.624 24.5146 120.393 24.5146C118.773 24.5146 117.76 23.443 117.76 21.745C117.76 20.0806 118.786 18.985 120.347 18.985C120.677 18.9682 121.007 19.0205 121.315 19.1387C121.624 19.2569 121.904 19.4384 122.138 19.6714C122.372 19.9044 122.555 20.1838 122.674 20.4916C122.794 20.7994 122.848 21.1289 122.833 21.4588C122.836 21.6531 122.828 21.8474 122.81 22.0408ZM121.864 21.2776C121.879 21.0746 121.85 20.8707 121.779 20.6801C121.707 20.4895 121.595 20.3169 121.449 20.1745C121.304 20.0322 121.129 19.9234 120.937 19.856C120.744 19.7885 120.54 19.764 120.337 19.7842C120.133 19.7696 119.927 19.7974 119.734 19.8659C119.54 19.9344 119.363 20.0422 119.213 20.1824C119.063 20.3226 118.944 20.4922 118.862 20.6807C118.781 20.8692 118.74 21.0724 118.741 21.2776H121.864Z" fill="white"/>
<path d="M124.122 19.1231H125.113V20.3201C125.177 19.9591 125.366 19.6325 125.648 19.3985C125.93 19.1646 126.286 19.0387 126.653 19.0433C126.814 19.0386 126.975 19.0539 127.133 19.0889V20.0009C126.971 19.9721 126.806 19.9607 126.642 19.9667C125.605 19.9667 125.114 20.9123 125.114 22.0871V24.3779H124.122V19.1231Z" fill="white"/>
<path d="M127.907 17.4255C127.907 17.2124 127.991 17.008 128.142 16.8574C128.293 16.7067 128.497 16.6221 128.71 16.6221C128.923 16.6221 129.128 16.7067 129.278 16.8574C129.429 17.008 129.514 17.2124 129.514 17.4255C129.514 17.6385 129.429 17.8429 129.278 17.9936C129.128 18.1442 128.923 18.2289 128.71 18.2289C128.497 18.2289 128.293 18.1442 128.142 17.9936C127.991 17.8429 127.907 17.6385 127.907 17.4255ZM128.226 19.1235H129.206V24.3783H128.226V19.1235Z" fill="white"/>
<path d="M135.544 22.0408H131.475C131.461 22.2593 131.495 22.4782 131.574 22.6824C131.653 22.8865 131.775 23.0713 131.932 23.2239C132.089 23.3765 132.277 23.4934 132.483 23.5667C132.69 23.6399 132.909 23.6677 133.128 23.6482C133.411 23.6789 133.697 23.6208 133.946 23.482C134.195 23.3431 134.395 23.1303 134.518 22.873H135.51C135.327 23.842 134.359 24.5146 133.128 24.5146C131.508 24.5146 130.494 23.443 130.494 21.745C130.494 20.0806 131.52 18.985 133.082 18.985C133.412 18.9682 133.741 19.0205 134.05 19.1387C134.358 19.2569 134.638 19.4384 134.872 19.6714C135.106 19.9044 135.289 20.1838 135.409 20.4916C135.528 20.7995 135.582 21.1289 135.567 21.4588C135.57 21.6531 135.562 21.8474 135.544 22.0408ZM134.598 21.2776C134.613 21.0746 134.584 20.8705 134.513 20.6799C134.441 20.4893 134.328 20.3167 134.183 20.1743C134.037 20.0319 133.862 19.9232 133.67 19.8558C133.478 19.7884 133.273 19.764 133.071 19.7842C132.866 19.7696 132.66 19.7974 132.467 19.8659C132.273 19.9344 132.096 20.0422 131.946 20.1824C131.797 20.3226 131.677 20.4923 131.596 20.6807C131.515 20.8692 131.474 21.0724 131.475 21.2776H134.598Z" fill="white"/>
<path d="M136.856 19.1233H137.847V20.0923C138.002 19.7416 138.262 19.4472 138.59 19.2493C138.919 19.0515 139.3 18.9597 139.683 18.9865C140.971 18.9865 141.632 19.7389 141.632 21.1411V24.3811H140.652V21.5743C140.652 20.4001 140.263 19.8415 139.332 19.8415C138.351 19.8415 137.85 20.5369 137.85 21.5971V24.3781H136.858L136.856 19.1233Z" fill="white"/>
<path d="M142.863 21.7566C142.863 20.1264 143.856 18.9966 145.474 18.9966C146.887 18.9966 147.799 19.7718 147.924 20.946H146.933C146.873 20.6134 146.686 20.3173 146.411 20.1196C146.137 19.9219 145.797 19.8381 145.462 19.8858C144.46 19.8858 143.842 20.5812 143.842 21.7554C143.842 22.9176 144.459 23.6244 145.462 23.6244C145.792 23.6722 146.127 23.5928 146.4 23.4023C146.674 23.2119 146.864 22.9247 146.933 22.599H147.924C147.799 23.7498 146.887 24.5136 145.474 24.5136C143.856 24.5148 142.863 23.3862 142.863 21.7566Z" fill="white"/>
<path d="M153.9 22.0408H149.831C149.818 22.2593 149.852 22.4782 149.931 22.6824C150.009 22.8865 150.132 23.0713 150.289 23.2239C150.446 23.3765 150.634 23.4934 150.84 23.5667C151.046 23.6399 151.266 23.6677 151.484 23.6482C151.767 23.6789 152.053 23.6208 152.303 23.482C152.552 23.3431 152.751 23.1303 152.874 22.873H153.866C153.686 23.842 152.715 24.5146 151.484 24.5146C149.864 24.5146 148.851 23.443 148.851 21.745C148.851 20.0806 149.877 18.985 151.438 18.985C151.768 18.9682 152.098 19.0205 152.406 19.1387C152.715 19.2569 152.995 19.4384 153.229 19.6714C153.463 19.9044 153.646 20.1838 153.765 20.4916C153.885 20.7995 153.938 21.1289 153.923 21.4588C153.926 21.6531 153.918 21.8474 153.9 22.0408ZM152.954 21.2776C152.97 21.0746 152.941 20.8705 152.869 20.6799C152.797 20.4893 152.685 20.3167 152.539 20.1743C152.394 20.0319 152.219 19.9232 152.026 19.8558C151.834 19.7884 151.63 19.764 151.427 19.7842C151.222 19.7696 151.017 19.7974 150.823 19.8659C150.63 19.9344 150.453 20.0422 150.303 20.1824C150.153 20.3226 150.034 20.4923 149.953 20.6807C149.871 20.8692 149.83 21.0724 149.831 21.2776H152.954Z" fill="white"/>
<path d="M154.925 23.6257C154.923 23.4066 155.009 23.1959 155.163 23.0399C155.317 22.8838 155.526 22.7952 155.745 22.7935C155.966 22.7935 156.177 22.8811 156.333 23.0372C156.49 23.1933 156.577 23.4049 156.577 23.6257C156.577 23.8464 156.49 24.058 156.333 24.2141C156.177 24.3702 155.966 24.4579 155.745 24.4579C155.526 24.4561 155.317 24.3675 155.163 24.2115C155.009 24.0554 154.923 23.8447 154.925 23.6257Z" fill="white"/>
<path d="M72.3639 38.725C72.3639 40.5976 71.0379 41.752 68.8695 41.752H64.2051V30.832H68.7003C70.8681 30.832 72.2097 31.9084 72.2097 33.6718C72.2468 34.2764 72.0508 34.8721 71.6619 35.3365C71.2731 35.8008 70.7209 36.0983 70.1193 36.1678C70.7549 36.2122 71.3473 36.5058 71.7677 36.9847C72.188 37.4635 72.4023 38.089 72.3639 38.725ZM66.7323 32.6566V35.3092H68.1363C69.1035 35.3092 69.6807 34.81 69.6807 33.9826C69.6807 33.1552 69.1191 32.6566 68.1363 32.6566H66.7323ZM69.8211 38.3998C69.8207 38.2088 69.7799 38.02 69.7014 37.8459C69.6229 37.6718 69.5084 37.5163 69.3655 37.3895C69.2225 37.2628 69.0544 37.1678 68.8721 37.1107C68.6899 37.0536 68.4976 37.0357 68.3079 37.0582H66.7323V39.835H68.3079C68.5055 39.8581 68.7057 39.8375 68.8945 39.7747C69.0832 39.7118 69.2559 39.6083 69.4002 39.4714C69.5445 39.3345 69.657 39.1676 69.7298 38.9824C69.8025 38.7972 69.8337 38.5984 69.8211 38.3998Z" fill="white"/>
<path d="M73.8449 34.2326H76.2317V35.8088C76.3258 35.3283 76.5844 34.8955 76.9631 34.5851C77.3418 34.2746 77.8169 34.1058 78.3065 34.1078C78.5164 34.1006 78.7263 34.1218 78.9305 34.1708V36.386C78.6919 36.3538 78.4513 36.338 78.2105 36.3386C76.9163 36.3386 76.2305 37.1816 76.2305 38.8502V41.7524H73.8438L73.8449 34.2326Z" fill="white"/>
<path d="M79.5703 37.9927C79.5703 35.6995 81.1609 34.0327 83.7505 34.0327C86.3251 34.0327 87.9163 35.7025 87.9163 37.9927C87.9163 40.2829 86.3251 41.9527 83.7505 41.9527C81.1609 41.9551 79.5703 40.2859 79.5703 37.9927ZM85.5451 37.9927C85.5649 37.7451 85.5332 37.496 85.4519 37.2612C85.3707 37.0264 85.2418 36.811 85.0732 36.6284C84.9047 36.4459 84.7002 36.3003 84.4726 36.2006C84.245 36.101 83.9993 36.0496 83.7508 36.0496C83.5024 36.0496 83.2566 36.101 83.029 36.2006C82.8014 36.3003 82.5969 36.4459 82.4284 36.6284C82.2598 36.811 82.1309 37.0264 82.0497 37.2612C81.9685 37.496 81.9368 37.7451 81.9565 37.9927C81.9368 38.2404 81.9685 38.4894 82.0497 38.7242C82.1309 38.959 82.2598 39.1745 82.4284 39.357C82.5969 39.5395 82.8014 39.6852 83.029 39.7848C83.2566 39.8844 83.5024 39.9358 83.7508 39.9358C83.9993 39.9358 84.245 39.8844 84.4726 39.7848C84.7002 39.6852 84.9047 39.5395 85.0732 39.357C85.2418 39.1745 85.3707 38.959 85.4519 38.7242C85.5332 38.4894 85.5649 38.2404 85.5451 37.9927Z" fill="white"/>
<path d="M89.2886 34.2327H91.6754V35.3253C91.9146 34.8991 92.271 34.5506 92.7023 34.3209C93.1337 34.0913 93.6219 33.9903 94.109 34.0299C95.9348 34.0299 96.8546 35.0601 96.8546 37.1031V41.7525H94.4546V37.8837C94.4546 36.6201 94.0946 36.0429 93.1286 36.0429C92.1776 36.0429 91.6778 36.6669 91.6778 37.8213V41.7525H89.291L89.2886 34.2327Z" fill="white"/>
<path d="M101.55 36.2134H98.2113V34.2334H105.171L101.537 39.7876H104.891V41.7532H97.8525L101.55 36.2134Z" fill="white"/>
<path d="M113.298 38.648H107.745C107.791 39.6308 108.447 40.1612 109.507 40.1612C110.241 40.1612 110.707 39.9584 110.912 39.4904H113.252C113.018 40.9724 111.505 41.9552 109.508 41.9552C106.95 41.9552 105.374 40.5044 105.374 37.9952C105.374 35.5298 106.981 34.0352 109.43 34.0352C111.77 34.0352 113.362 35.486 113.362 37.6076C113.363 37.9554 113.342 38.3029 113.298 38.648ZM111.005 37.166C111.024 36.955 110.995 36.7425 110.921 36.5441C110.847 36.3457 110.729 36.1665 110.576 36.0197C110.424 35.873 110.24 35.7624 110.039 35.6962C109.837 35.63 109.624 35.6098 109.414 35.6372C109.201 35.614 108.985 35.6365 108.782 35.7032C108.578 35.7699 108.391 35.8792 108.233 36.0239C108.075 36.1686 107.95 36.3453 107.866 36.5422C107.782 36.7392 107.74 36.9518 107.745 37.166H111.005Z" fill="white"/>
<path d="M127.167 34.7783C127.187 35.2993 127.1 35.8189 126.91 36.3047C126.721 36.7905 126.434 37.2322 126.067 37.6024C125.699 37.9725 125.26 38.2632 124.776 38.4563C124.291 38.6495 123.772 38.741 123.251 38.7251H121.13V41.7521H118.603V30.8321H123.251C123.773 30.815 124.292 30.9055 124.777 31.0981C125.262 31.2908 125.702 31.5814 126.069 31.9517C126.437 32.3221 126.724 32.7642 126.913 33.2506C127.102 33.737 127.188 34.257 127.167 34.7783ZM124.609 34.7783C124.626 34.5379 124.593 34.2964 124.513 34.0689C124.434 33.8415 124.308 33.6328 124.144 33.4559C123.98 33.2789 123.782 33.1375 123.561 33.0403C123.341 32.9431 123.102 32.8922 122.861 32.8907H121.13V36.6665H122.861C123.103 36.6652 123.341 36.6143 123.562 36.5171C123.782 36.4199 123.981 36.2784 124.144 36.1014C124.308 35.9244 124.434 35.7156 124.514 35.488C124.594 35.2604 124.626 35.0189 124.609 34.7783Z" fill="white"/>
<path d="M127.775 37.9925C127.775 35.7461 129.163 34.0325 131.347 34.0325C131.82 34.009 132.289 34.116 132.705 34.3418C133.12 34.5675 133.466 34.9033 133.703 35.3123V34.2323H136.074V41.7521H133.703V40.6913C133.451 41.093 133.098 41.4213 132.679 41.6431C132.259 41.8649 131.789 41.9724 131.316 41.9549C129.069 41.9549 127.775 40.2545 127.775 37.9925ZM133.797 37.9925C133.797 36.9161 133.188 36.0263 132.003 36.0263C131.506 36.0659 131.043 36.2911 130.706 36.6569C130.368 37.0226 130.18 37.5022 130.18 38C130.18 38.4978 130.368 38.9773 130.706 39.3431C131.043 39.7088 131.506 39.934 132.003 39.9737C133.188 39.9737 133.797 39.0845 133.797 37.9925Z" fill="white"/>
<path d="M138.055 34.2326H140.442V35.8088C140.536 35.3283 140.794 34.8955 141.173 34.5851C141.552 34.2746 142.027 34.1058 142.516 34.1078C142.726 34.1006 142.936 34.1218 143.141 34.1708V36.386C142.902 36.3538 142.661 36.3379 142.421 36.3386C141.126 36.3386 140.441 37.1816 140.441 38.8502V41.7524H138.054L138.055 34.2326Z" fill="white"/>
<path d="M149.506 39.8489V41.7521C148.98 41.8391 148.447 41.8809 147.914 41.8769C146.791 41.8769 145.246 41.6273 145.246 39.1169V36.1199H144.06V34.2323H145.246V32.0015H147.633V34.2323H149.333V36.1199H147.633V38.6159C147.633 39.7235 148.085 39.8951 148.678 39.8951C148.955 39.8966 149.231 39.8812 149.506 39.8489Z" fill="white"/>
<path d="M150.878 34.2327H153.265V35.3253C153.504 34.8991 153.86 34.5506 154.292 34.3209C154.723 34.0913 155.211 33.9903 155.698 34.0299C157.524 34.0299 158.444 35.0601 158.444 37.1031V41.7525H156.044V37.8837C156.044 36.6201 155.684 36.0429 154.718 36.0429C153.766 36.0429 153.267 36.6669 153.267 37.8213V41.7525H150.88L150.878 34.2327Z" fill="white"/>
<path d="M167.679 38.648H162.126C162.173 39.6308 162.828 40.1612 163.888 40.1612C164.622 40.1612 165.088 39.9584 165.292 39.4904H167.632C167.398 40.9724 165.885 41.9552 163.887 41.9552C161.33 41.9552 159.754 40.5044 159.754 37.9952C159.754 35.5298 161.361 34.0352 163.81 34.0352C166.15 34.0352 167.741 35.486 167.741 37.6076C167.743 37.9553 167.722 38.3028 167.679 38.648ZM165.386 37.166C165.405 36.955 165.376 36.7424 165.302 36.544C165.228 36.3456 165.11 36.1665 164.957 36.0197C164.804 35.873 164.62 35.7624 164.419 35.6962C164.218 35.63 164.004 35.6098 163.794 35.6372C163.581 35.614 163.366 35.6365 163.162 35.7032C162.959 35.7699 162.772 35.8792 162.614 36.0239C162.456 36.1686 162.331 36.3453 162.247 36.5423C162.162 36.7392 162.121 36.9518 162.126 37.166H165.386Z" fill="white"/>
<path d="M169.114 34.2326H171.502V35.8088C171.596 35.3282 171.854 34.8954 172.233 34.5849C172.612 34.2744 173.087 34.1057 173.577 34.1078C173.787 34.1006 173.996 34.1218 174.201 34.1708V36.386C173.962 36.3538 173.721 36.338 173.481 36.3386C172.185 36.3386 171.501 37.1816 171.501 38.8502V41.7524H169.113L169.114 34.2326Z" fill="white"/>
<path d="M21.3398 25.9408C23.9669 25.9408 26.0966 23.8112 26.0966 21.184C26.0966 18.5569 23.9669 16.4272 21.3398 16.4272C18.7127 16.4272 16.583 18.5569 16.583 21.184C16.583 23.8112 18.7127 25.9408 21.3398 25.9408Z" fill="white"/>
<path d="M33.5592 34.8122C36.1041 34.8122 38.1672 32.7491 38.1672 30.2042C38.1672 27.6593 36.1041 25.5962 33.5592 25.5962C31.0142 25.5962 28.9512 27.6593 28.9512 30.2042C28.9512 32.7491 31.0142 34.8122 33.5592 34.8122Z" fill="white"/>
<path d="M45.3834 43.5724C47.9283 43.5724 49.9914 41.5094 49.9914 38.9644C49.9914 36.4195 47.9283 34.3564 45.3834 34.3564C42.8385 34.3564 40.7754 36.4195 40.7754 38.9644C40.7754 41.5094 42.8385 43.5724 45.3834 43.5724Z" fill="white"/>
</svg>
